<svg xmlns="http://www.w3.org/2000/svg" viewBox="0 0 512 512" style="height: 512px; width: 512px;"><g class="" transform="translate(0,0)" style=""><g><path d="M129.75 24.47L21.625 211.655L77.405 243.843L185.532 56.656L129.75 24.47Z" class="" fill="#9b9b9b" fill-opacity="1"></path><path d="M185.72 93.72L110.094 224.594L326.47 349.47L402.062 218.594L185.72 93.72Z" class="" fill="#9b9b9b" fill-opacity="1"></path><path d="M269.188 94.406L257.968 113.844L342.938 162.874L354.188 143.406L269.188 94.406Z" class="" fill="#8b572a" fill-opacity="1"></path><path d="M434.25 200.22L326.156 387.405L381.936 419.593L490.031 232.405L434.251 200.218Z" class="selected" fill="#9b9b9b" fill-opacity="1"></path><path d="M163.72 277.125L152.438 296.655L237.406 345.655L248.656 326.155L163.719 277.125Z" class="" fill="#8b572a" fill-opacity="1"></path><path d="M160.625 322.969L61.312 494.81L128.469 494.81L210.749 351.842L160.624 322.967Z" class="" fill="#8b572a" fill-opacity="1"></path></g></g></svg>