<svg xmlns="http://www.w3.org/2000/svg" viewBox="0 0 512 512" style="height: 512px; width: 512px;"><g class="" transform="translate(0,0)" style=""><g><path d="M62.936 16.73L19.72 59.95C21.342 72.49 27.303 86.844 39.11 101.854L105.084 35.881C90.058 24.2 75.52 18.26 62.937 16.73Z" class="" fill="#9b9b9b" fill-opacity="1"></path><path d="M96.1 71.295L74.895 92.5C81.235 103.57 90.285 116.283 101.428 129.465L126.625 92.525C115.76 83.8 105.355 76.595 96.1 71.295Z" class="" fill="#8b572a" fill-opacity="1"></path><path d="M258.627 88.26L278.033 107.668L112.15 273.55L92.742 254.145L127.622 355.4L181.702 343.102L129.789 291.192L295.673 125.309L347.581 177.216L359.881 123.136L258.628 88.26Z" class="selected" fill="#9b9b9b" fill-opacity="1"></path><path d="M140.945 104.695L114.25 143.83C116.88 146.626 119.585 149.425 122.375 152.215C123.68 153.52 124.987 154.807 126.295 156.078L164.345 127.592C161.588 124.652 158.745 121.709 155.813 118.775C150.863 113.825 145.888 109.13 140.945 104.695Z" class="" fill="#8b572a" fill-opacity="1"></path><path d="M176.822 141.598L140.258 168.968C149.93 177.455 159.425 184.862 168.298 190.973L194.564 164.707C189.494 157.344 183.554 149.563 176.822 141.597Z" class="" fill="#8b572a" fill-opacity="1"></path><path d="M278.162 169.25L255.195 192.217C309.745 247.447 348.645 292.11 373.088 325.139C386.111 342.735 395.065 356.969 400.268 368.359C402.868 374.054 404.59 379.009 405.191 383.913C405.794 388.816 405.167 394.656 400.925 398.938C396.682 403.218 390.815 403.895 385.911 403.311C381.006 402.726 376.057 401.015 370.371 398.424C358.996 393.242 344.779 384.306 327.188 371.289C294.168 346.855 249.478 307.924 194.144 253.269L172.687 274.726C251.047 339.743 395.845 462.076 497.187 494.132C460.944 394.222 341.202 248.082 278.163 169.249Z" class="" fill="#c7c7c7" fill-opacity="1"></path><path d="M241.979 205.434L207.356 240.054C262.238 294.251 306.446 332.692 338.304 356.268C355.284 368.833 368.854 377.2 378.116 381.42C381.602 383.008 384.192 383.81 386.173 384.283C385.697 382.283 384.879 379.656 383.267 376.125C379.023 366.833 370.637 353.245 358.065 336.255C334.479 304.387 296.068 260.211 241.978 205.435Z" class="" fill="#c9c9c9" fill-opacity="1"></path></g></g></svg>