<svg xmlns="http://www.w3.org/2000/svg" viewBox="0 0 512 512" style="height: 512px; width: 512px;"><g class="" transform="translate(0,0)" style=""><g><path d="M173.844 15.563L173.844 15.593L226.064 207.75C233.099 204.59 240.816 201.72 248.75 199.344C257.644 196.681 266.756 194.661 275.47 193.624L227 15.565L173.844 15.563Z" class="" fill="#8b572a" fill-opacity="1"></path><path d="M413.874 199.531C400.829 214.941 365.014 231.277 322 245.376C323.64 261.794 324.707 280.451 324.72 298.72C324.73 317.378 323.615 335.314 320.47 349.875C318.896 357.155 316.86 363.625 313.72 369.155C310.577 374.685 305.905 379.745 299.156 381.531C292.406 383.317 285.84 381.256 280.344 378.031C274.847 374.808 269.794 370.241 264.75 364.721C254.663 353.676 244.625 338.663 235.187 322.501C225.71 306.271 216.952 289.131 209.969 273.813C164.437 282.243 124.776 285.503 107.843 280.126C135.433 381.776 179.475 455.864 228.155 496.22L388.75 496.22C435.997 443.633 450.953 336.145 413.875 199.53Z" class="selected" fill="#9b9b9b" fill-opacity="1"></path><path d="M286.031 211.595C285.286 211.602 284.506 211.617 283.721 211.657C275.027 212.097 264.401 214.165 254.095 217.251C243.787 220.337 233.751 224.434 226.032 228.564C220.778 231.374 217.365 234.086 215.127 236.094C220.34 251.98 234.763 284.696 251.347 313.094C260.391 328.586 270.047 342.768 278.565 352.094C282.823 356.758 286.819 360.169 289.783 361.907C292.748 363.647 294.09 363.547 294.378 363.47C294.666 363.393 295.798 362.85 297.472 359.906C299.142 356.962 300.896 352.069 302.222 345.936C304.87 333.674 306.045 316.596 306.032 298.719C306.012 265.321 301.762 229.007 298.19 213.155C295.46 212.26 291.257 211.545 286.033 211.593Z" class="" fill="#c9c9c9" fill-opacity="1"></path></g></g></svg>