<svg xmlns="http://www.w3.org/2000/svg" viewBox="0 0 512 512" style="height: 512px; width: 512px;"><g class="" transform="translate(0,0)" style=""><g><path d="M257.563 25.156C610.723 302.026 274.481 434.051 169.688 318.406L128.938 355.531L179.75 405.876C397.312 587.239 704.48 153.818 257.563 25.156Z" class="" fill="#9b9b9b" fill-opacity="1"></path><path d="M110.75 364.28C105.225 365.345 101.775 367.237 99.437 369.53C97.481 371.452 96.189 374.086 95.187 377.094L150.375 429.938C155.843 428.93 159.639 427.142 161.655 425.25C163.652 423.378 164.75 421.386 164.75 417.72L110.75 364.28Z" class="" fill="#f8e71c" fill-opacity="1"></path><path d="M86.03 394.594L30.407 445.28C13.67 472.28 45.1 506.478 81.5 489.94L133.03 439.658L86.03 394.596Z" class="selected" fill="#8b572a" fill-opacity="1"></path></g></g></svg>