<svg xmlns="http://www.w3.org/2000/svg" viewBox="0 0 512 512" style="height: 512px; width: 512px;"><g class="" transform="translate(0,0)" style=""><g><path d="M139.8 24.96C155.9 88.06 182 124.7 197 141.5L198.2 142.8L199.8 143.7C216.2 151.7 226.6 168.4 226.6 186.7C226.6 213.3 205.2 234.7 178.5 234.7C151.9 234.7 130.5 213.3 130.5 186.7C130.5 178.1 132.8 169.8 137.1 162.3L140 157.3L136.8 152.4C118.7 125.3 117.1 101 122.2 75.66C125.5 59.06 132.4 42.06 139.8 24.96Z" class="" fill="#9b9b9b" fill-opacity="1"></path><path d="M260.8 139.6C268.4 139.7 275.7 140.9 281.7 143.6C285.7 151.7 287.9 162.3 292.3 172.7C294.8 178.3 298.2 184.1 303.9 188.3C309.3 192.3 316.4 194.4 324.3 194.3C380.8 204.6 416.6 220.7 440.6 239.7C464.8 258.6 477.6 280.6 487.5 304.5L487.5 304.6C489.2 308.5 488.8 311 487.4 313.8C485.9 316.8 482.8 319.8 479 321.9C475.1 324 470.5 325 466.9 324.9C463.4 324.7 461.1 323.6 459.5 321.8C447.3 306.9 432.5 286.5 414 270.1C395.4 253.7 372.1 241 344.5 244.2C323.3 246.6 311.4 237.8 294.1 227.4C280.6 219.3 264 210.8 241.2 209.8C243.9 202.6 245.4 194.8 245.4 186.7C245.4 170.4 239.4 155.1 229.2 143.2C234.8 142.2 240.9 140.9 247.3 140.2C250.7 139.9 254.1 139.6 257.5 139.6Z" class="" fill="#264305" fill-opacity="1"></path><path d="M23.39 156.8C50.89 165.9 79.99 174 113.5 171.6C112.4 176.5 111.7 181.6 111.7 186.7C111.7 202.1 117.1 216.4 125.9 227.8C97.09 227.6 77.19 217.4 59.79 201.6C46.49 189.4 34.89 173.4 23.39 156.8Z" class="" fill="#9b9b9b" fill-opacity="1"></path><path d="M178.5 160.6C164.2 160.6 152.4 172.4 152.4 186.7C152.4 201 164.2 212.8 178.5 212.8C192.8 212.8 204.6 201 204.6 186.7C204.6 172.4 192.8 160.6 178.5 160.6Z" class="" fill="#4a4a4a" fill-opacity="1"></path><path d="M178.5 179.4C182.7 179.4 185.9 182.5 185.9 186.7C185.9 190.8 182.7 194 178.5 194C174.4 194 171.2 190.8 171.2 186.7C171.2 182.5 174.4 179.4 178.5 179.4Z" class="" fill="#9b9b9b" fill-opacity="1"></path><path d="M204.3 248.4C210.6 301 231.2 335.7 255.5 362.2C282.3 391.4 312.6 411.9 334.2 439.5C335.4 442.8 336.2 449.6 335.4 456.8C334.4 464.5 331.9 472.8 328.5 478.6C325.1 484.2 321.6 486.7 318.4 487C315.4 487.3 309.8 485.7 301.4 476.5C283.4 443.2 247.7 391.7 200.5 369.1C181.8 360.1 172.9 347.4 168.2 332.1C163.6 316.9 163.7 298.9 165.3 282C166.5 268.1 163.8 258.2 160.6 251C166.3 252.7 172.3 253.5 178.5 253.5C187.6 253.5 196.4 251.6 204.3 248.4Z" class="selected" fill="#264305" fill-opacity="1"></path></g></g></svg>