<svg xmlns="http://www.w3.org/2000/svg" viewBox="0 0 512 512" style="height: 512px; width: 512px;"><g class="" transform="translate(0,0)" style=""><g><path d="M119.967 156.205C119.112 156.203 118.258 156.242 117.407 156.322C115.157 156.534 112.987 157.031 110.998 157.773C103.045 160.743 96.74 166.37 91.863 172.413L105.869 183.719C109.199 179.595 113.852 175.922 117.295 174.637C120.737 173.351 121.725 173.177 124.359 175.828L124.529 175.998L153.354 202.041L115.15 207.561L68.605 173.437L68.572 173.412C63.872 170.033 58.634 168.852 53.58 169.025C48.526 169.199 43.659 170.727 39.7 172.77C31.78 176.854 25.325 182.68 20.686 186.168L31.504 200.555C37.088 196.356 42.956 191.341 47.949 188.765C52.938 186.193 54.885 185.746 58.057 188.023L58.064 188.027L193.951 287.647C199.826 284.225 205.953 281.255 212.279 278.764L135.875 222.752L170.707 217.721L203.336 247.203L201.465 221.252L136.775 162.805C132.012 158.211 125.851 156.222 119.967 156.205Z" class="" fill="#8b572a" fill-opacity="0"></path><path d="M219.988 227.854L220.858 239.924C300.811 243.605 380.508 253.514 459.967 263.162L459.967 246.543L321.455 230.527L219.988 227.854Z" class="" fill="#8b572a" fill-opacity="1"></path><path d="M477.967 248.625L477.967 265.328C484.006 266.056 490.047 266.792 496.084 267.508L495.82 250.689L477.967 248.625Z" class="" fill="#8b572a" fill-opacity="1"></path><path d="M214.852 257.607L231.539 272.684C233.697 272.162 235.902 271.674 238.164 271.234C243.308 270.234 248.717 269.486 254.355 269.041L243.338 259.086C233.838 258.508 224.343 258.011 214.852 257.607Z" class="" fill="#8b572a" fill-opacity="1"></path><path d="M310.529 263.654L310.613 275.119C316.421 276.822 322.14 278.816 327.748 281.094L327.408 268.194L310.529 263.654Z" class="" fill="#8b572a" fill-opacity="1"></path><path d="M267.525 286.521C258.825 286.441 250.139 287.239 241.6 288.904C220.735 292.961 204.677 301.685 195.432 308.227C208.835 323.508 235.54 340.905 286.682 349.207L293.052 350.24L295.873 367.104C333.624 369.761 383.976 365.541 423.721 361.037C413.871 357.015 403.25 352.687 392.904 347.871C371.674 337.991 351.065 326.427 341.879 307.951C314.145 292.403 289.103 286.726 267.525 286.521Z" class="selected" fill="#34200d" fill-opacity="1"></path><path d="M15.451 339.838L15.451 358.033C84.727 368.245 185.161 376.365 279.543 379.053L270.057 361.061C175.231 358.361 84.902 350.161 15.451 339.838Z" class="" fill="#8b572a" fill-opacity="1"></path><path d="M25.986 365.914C22.184 365.918 18.486 366.514 15.451 367.614L15.451 381.076C18.488 382.174 22.185 382.769 25.986 382.771C35.683 382.771 43.545 378.998 43.545 374.344C43.547 369.688 35.685 365.914 25.986 365.914Z" class="" fill="#8b572a" fill-opacity="1"></path><path d="M401.043 377.541L349.537 385.479L493.037 403.33L493.037 385.266L401.043 377.541Z" class="" fill="#8b572a" fill-opacity="1"></path><path d="M200.633 395.261C140.932 395.498 59.176 404.428 15.451 409.768L15.451 427.971C64.664 422.018 166.747 410.929 224.035 413.719C298.053 417.324 423.893 442.923 493.037 458.023L493.037 439.506C423.084 424.214 300.4 399.416 224.912 395.74C219.523 395.485 214.129 395.334 208.734 395.285C206.034 395.258 203.333 395.25 200.633 395.262Z" class="" fill="#8b572a" fill-opacity="1"></path><path d="M327.287 445.981C317.59 445.981 309.729 449.754 309.729 454.408C309.729 456.011 310.682 457.58 312.475 458.932C310.099 458.897 307.755 458.852 305.311 458.836C301.572 458.811 297.757 458.806 293.873 458.822C201.802 459.21 71.826 470.87 15.451 476.363L15.451 494.488C77.182 488.494 238.195 474.036 327.443 477.291C371.989 478.915 445.999 489.941 493.037 497.576L493.037 479.28C449.935 472.285 386.067 462.8 340.52 459.94C343.305 458.408 344.841 456.443 344.846 454.41C344.846 449.755 336.984 445.981 327.287 445.981Z" class="" fill="#8b572a" fill-opacity="1"></path></g></g></svg>