<svg xmlns="http://www.w3.org/2000/svg" viewBox="0 0 512 512" style="height: 512px; width: 512px;"><g class="" transform="translate(0,0)" style=""><g><path d="M51.72 25C55.48 67 55.44 109 51.72 151L95.94 151C91.38 109.4 92.26 67.32 96.22 25L51.72 25Z" class="" fill="#f5a623" fill-opacity="1"></path><path d="M233.4 25C236 79.1 238.9 133.6 233.8 189.7L278.1 189.7C273.1 135.2 274.4 80.18 278.4 25L233.4 25Z" class="" fill="#417505" fill-opacity="1"></path><path d="M346.6 25C351.2 56.51 350.2 87.88 346.2 119L390.3 119C387.9 87.67 387.9 56.33 390.3 25L346.6 25Z" class="" fill="#b57204" fill-opacity="1"></path><path d="M463.1 61.46C463.1 61.46 421.7 69.27 409.6 85.32C406.4 89.93 403.7 97.64 406.6 102.5C409.7 107.3 417.3 107.5 422.4 105.8C440.7 99.8 463.1 61.46 463.1 61.46Z" class="" fill="#417505" fill-opacity="1"></path><path d="M173 106.9C173 106.9 185 149.6 201.1 160C205.7 163.1 213.3 164.6 217.4 160.7C221.5 156.8 220.8 148.7 218.8 143.5C211 124.8 173 106.9 173 106.9Z" class="" fill="#417505" fill-opacity="1"></path><path d="M434.4 113.8C429.8 113.9 425.5 114.4 421.9 115.6C415.6 117.8 407.8 123.7 408.1 130.3C408.2 136.9 416.3 142.3 422.9 144.1C446.5 150.3 494.4 127.5 494.4 127.5C494.4 127.5 459.2 113.5 434.4 113.8Z" class="" fill="#417505" fill-opacity="1"></path><path d="M346.2 137C352.4 184.7 353.3 232.1 346.4 279L390.2 279C386.2 231.6 386.7 184.2 390.4 137L346.2 137Z" class="selected" fill="#b57204" fill-opacity="1"></path><path d="M413.6 155.9C411.4 156 409.3 156.7 407.7 158.2C403.6 162.1 404.3 170.2 406.3 175.4C414.1 194.1 452.1 212 452.1 212C452.1 212 440.1 169.3 424 158.9C421.4 157.2 417.9 155.9 414.5 155.9L413.6 155.9Z" class="" fill="#417505" fill-opacity="1"></path><path d="M158.6 168.2C145.5 168.4 135.4 169.5 135.4 169.5C135.4 169.5 175.7 204.1 200.1 204.3C206.8 204.2 216.1 201.2 217.9 194.9C220 188.6 214.1 180.8 208.4 177C198.3 170.2 180 168.4 164.3 168.2L158.6 168.2Z" class="" fill="#417505" fill-opacity="1"></path><path d="M52.01 169C56.42 211.1 55.93 253.1 51.81 295L96.23 295C92.33 252.7 91.31 210.6 95.92 169L52.01 169Z" class="" fill="#8b572a" fill-opacity="1"></path><path d="M233.5 201C236.8 253.1 237 305.7 233.5 359L278.1 359C273.1 305.5 274.4 253 278.4 201L233.5 201Z" class="" fill="#417505" fill-opacity="1"></path><path d="M157.1 223.6C157.1 223.6 119.1 241.5 111.3 260.2C109.3 265.4 108.6 273.5 112.7 277.4C116.8 281.3 124.4 279.8 129 276.7C145.1 266.3 157.1 223.6 157.1 223.6Z" class="" fill="#417505" fill-opacity="1"></path><path d="M131.5 295.7C124.8 295.9 116.5 298.8 114.6 304.7C112.5 310.9 118.2 318.8 123.7 322.7C143.6 336.7 196.5 332.1 196.5 332.1C196.5 332.1 157.2 296.5 132.8 295.7L131.5 295.7Z" class="" fill="#417505" fill-opacity="1"></path><path d="M345.7 297C348.5 333.5 349.3 370.2 345.9 407L389.8 407C385.2 369 388.1 332.7 390.4 297L345.7 297Z" class="" fill="#b57204" fill-opacity="1"></path><path d="M51.61 313C55.57 371.2 54.33 429.2 51.41 487L96.62 487C94.13 429.3 92.06 371.3 96.34 313L51.61 313Z" class="" fill="#f5a623" fill-opacity="1"></path><path d="M121 337.8C117.2 337.9 113.5 339.1 111.6 342.1C108.7 346.9 111.4 354.7 114.6 359.3C126.7 375.3 168.1 383.1 168.1 383.1C168.1 383.1 145.7 344.8 127.4 338.8C125.5 338.2 123.2 337.8 121 337.8Z" class="" fill="#417505" fill-opacity="1"></path><path d="M480.7 357.2C480.7 357.2 427.8 362.3 410.8 379.7C406.2 384.5 401.9 393.4 405.2 399.1C408.3 404.9 418 406 424.7 404.6C448.5 399.4 480.7 357.2 480.7 357.2Z" class="" fill="#417505" fill-opacity="1"></path><path d="M234 377C237.6 413.7 234.4 450.9 233.3 487L278.5 487C276.8 451.2 272.8 414.6 277.7 377L234 377Z" class="" fill="#417505" fill-opacity="1"></path><path d="M416 422C410.8 422 404.9 424.3 403.3 428.9C401.4 434.2 405.7 441.1 409.9 444.9C425.3 457.9 467.3 456.5 467.3 456.5C467.3 456.5 437.2 424 418.1 422.1C417.4 422 416.7 422 416 422Z" class="" fill="#417505" fill-opacity="1"></path><path d="M346 425C348.1 445.3 349.3 466 346.6 487L389.4 487C386.6 465.9 388 445.2 390.1 425L346 425Z" class="" fill="#b57204" fill-opacity="1"></path></g></g></svg>