<svg xmlns="http://www.w3.org/2000/svg" viewBox="0 0 512 512" style="height: 512px; width: 512px;"><g class="" transform="translate(0,0)" style=""><g><path d="M255.03 18.906C227.158 18.906 201.696 33.272 182.72 57.531C178.216 63.288 174.11 69.601 170.455 76.378L193.311 77.928L209.581 45.768L217.376 79.562L245.386 81.462L258.913 51.359L267.757 82.979L294.292 84.779L303.797 51.231L319.497 86.487L343.324 88.105C338.471 76.679 332.411 66.295 325.4 57.269C310.434 37.997 291.425 24.975 270.385 20.386C265.369 19.411 260.245 18.906 255.033 18.906Z" class="" fill="#ffffff" fill-opacity="1"></path><path d="M162.19 94.56C155.493 112.354 151.688 132.4 151.688 153.625C151.688 192.797 165.06 227.985 185.344 252.438L195.469 264.656L194.792 264.783C211.592 280.181 231.772 288.933 253.409 288.933C281.153 288.933 306.497 274.548 325.397 250.211C344.297 225.875 356.31 191.691 356.31 153.739C356.31 137.399 354.078 121.759 350.033 107.302L319.107 105.205L309.965 137.473L294.865 103.563L268.539 101.776L252.449 137.579L241.931 99.972L216.048 98.215L199.156 131.602L191.064 96.52L162.189 94.56Z" class="" fill="#417505" fill-opacity="1"></path><path d="M93.625 187.187L93.625 258.219L112.313 258.219L112.313 232.874L150.855 232.874C147.942 226.894 145.345 220.654 143.095 214.186L112.313 214.186L112.313 187.186L93.624 187.186Z" class="" fill="#4a4a4a" fill-opacity="1"></path><path d="M389.031 187.187L389.031 214.187L367.534 214.187C365.384 220.65 362.889 226.889 360.067 232.875L389.032 232.875L389.032 258.219L407.722 258.219L407.722 187.186L389.032 187.186Z" class="selected" fill="#4a4a4a" fill-opacity="1"></path><path d="M336.308 266.412C314.868 291.66 285.682 307.622 253.411 307.622C222.271 307.622 194.001 292.759 172.794 269.032C158.604 272.082 146.354 275.94 135.714 280.642L159.481 308.254L192.749 303.426L173.642 324.706L193.637 347.936L225.955 336.848L208.65 365.378L228.81 388.798L262.818 372.878L246.008 408.781L266.686 432.808L303.216 415.704L285.16 454.271L315.188 489.157L353.346 489.157L353.346 420.845L372.033 420.845L372.033 489.157L450.973 489.157C450.958 423.853 450.511 372.014 436.815 336.063C422.695 298.997 396.242 276.483 336.31 266.413Z" class="" fill="#b57204" fill-opacity="1"></path><path d="M118.828 289.656C100.106 301.698 87.826 317.663 79.158 338.062C64.09 373.518 61.218 424.266 60.97 489.156L140.063 489.156L140.063 420.844L158.75 420.844L158.75 489.156L290.54 489.156L269.064 464.206L242.078 476.842L255.418 448.352L231.186 420.199L201.678 434.013L216.264 402.86L195.294 378.498L158.614 391.082L178.256 358.702L160.338 337.885L116.528 344.242L141.688 316.219L118.826 289.655Z" class="" fill="#d0021b" fill-opacity="1"></path></g></g></svg>