<svg xmlns="http://www.w3.org/2000/svg" viewBox="0 0 512 512" style="height: 512px; width: 512px;"><g class="" transform="translate(0,0)" style=""><g><path d="M250.116 18.434C228.418 35.909 215.242 60.232 209.454 84.514C203.257 110.51 206.194 136.064 213.737 150.447C225.257 150.689 236.862 151.095 248.537 152.01C239.727 111.637 246.411 62.606 250.117 18.434Z" class="" fill="#4a4a4a" fill-opacity="1"></path><path d="M318.471 23.357C294.65 37.804 278.37 60.17 269.416 83.47C266.35 91.458 264.122 99.742 262.769 108.19C262.843 124.938 264.149 140.53 267.609 154.01C278.256 155.426 288.949 157.412 299.675 160.207C294.835 117.991 308.587 68.292 318.472 23.357Z" class="" fill="#4a4a4a" fill-opacity="1"></path><path d="M182.775 153.18C151.012 166.41 125.043 180.476 103.965 197.055C132.075 188.558 160.789 181.237 206.062 179.905C198.884 167.358 191 158.11 182.776 153.18Z" class="" fill="#f5a623" fill-opacity="1"></path><path d="M221.175 168.682C231.969 186.986 240.001 210.494 246.502 236.442C255.809 273.588 261.402 316.394 264.082 357.855L265.1 362.935C272.82 347.793 280.07 335.325 290.428 325.531C305.721 311.076 326.96 303.945 361.428 301.761L445.866 296.411C447.556 293.701 449.724 291.401 452.034 289.538C456.147 286.221 460.859 283.772 465.749 281.632C473.385 278.292 481.047 275.902 487.364 273.877L488.887 260.039L367.867 234.009L337.607 193.963C299.297 173.938 260.717 169.913 221.175 168.685Z" class="" fill="#4a4a4a" fill-opacity="1"></path><path d="M214.847 197.722C148.507 198.486 120.193 211.579 75.525 224.475C69.304 231.917 63.702 239.856 58.777 248.213C104.653 235.629 146.474 221.513 200.689 221.49C208.459 221.487 216.879 221.85 223.855 222.344C221.095 213.509 218.078 205.262 214.847 197.724Z" class="" fill="#b57204" fill-opacity="1"></path><path d="M321.203 200.132L348.799 238.372L291.239 222.164C280.505 213.809 293.596 206.617 321.203 200.134Z" class="" fill="#d0021b" fill-opacity="1"></path><path d="M199.793 239.484C143.193 239.667 100.87 256.179 47.843 269.756C44.689 277.02 41.84 284.696 39.281 292.834C92.627 276.481 142.318 264.13 192.254 263.768C206.351 263.665 220.471 264.533 234.697 266.52C232.989 257.683 231.111 249.082 229.043 240.826C218.837 239.886 209.113 239.454 199.793 239.484Z" class="" fill="#f5a623" fill-opacity="1"></path><path d="M192.263 281.784C141.833 282.189 90.713 295.566 33.65 313.428C32.134 319.868 30.795 326.348 29.633 332.861C27.485 344.869 24.413 364.411 23.426 380.784C22.933 388.97 23.016 396.428 23.746 401.167C24.066 403.247 24.506 404.447 24.774 405.083C28.804 406.333 32.132 407.867 35.536 408.98C36.988 398.4 37.66 386.367 38.366 376.92C39.156 366.378 40.011 355.73 41.206 347.197C41.803 342.93 42.454 339.23 43.411 335.957C43.891 334.32 44.409 332.791 45.363 331.087C46.317 329.381 47.735 326.893 51.713 325.574C112.686 305.36 173.603 329.066 211.073 379.449L213.246 382.366L199.84 485.986L236.673 493.566L247.698 393.599C246.763 358.404 243.658 320.481 237.995 285.216C222.715 282.733 207.519 281.66 192.262 281.782Z" class="selected" fill="#b57204" fill-opacity="1"></path><path d="M290.243 354.754C283.967 364.932 277.675 377.988 269.468 394.406L268.396 396.551L290.026 492.597L321.926 487.919Z" class="" fill="#4a4a4a" fill-opacity="1"></path></g></g></svg>