<svg xmlns="http://www.w3.org/2000/svg" viewBox="0 0 512 512" style="height: 512px; width: 512px;"><g class="" transform="translate(0,0)" style=""><g><path d="M264.9 18.83C258.3 18.96 252.9 20.96 249.2 24.72C248.9 24.97 248.8 24.9 248.8 26.22C248.8 27.54 249.2 30.04 250.5 33.19C253.1 39.49 258.9 48.17 266.7 57.16C280.5 73.2 300.7 90.22 320.1 102.1C326.8 90.51 328.1 79.71 326.2 69.55C323.9 57.41 316.6 45.97 306.7 37.02C296.9 28.08 284.6 21.81 273.8 19.69C271.1 19.16 268.6 18.93 266.2 18.83C265.7 18.82 265.3 18.82 264.9 18.83Z" class="selected" fill="#f5a623" fill-opacity="1"></path><path d="M230.9 25.06C220.9 27.69 210 33.58 201.1 41.66C191.2 50.6 183.9 62.05 181.6 74.18C179.7 84.33 181 95.12 187.7 106.7C207.1 94.84 227.3 77.83 241.1 61.8C242.2 60.52 243.3 59.25 244.3 57.99C239.9 51.89 236.3 45.9 233.9 40.05C232 35.39 230.7 30.76 230.8 25.9C230.8 25.62 230.8 25.34 230.9 25.06Z" class="" fill="#48baff" fill-opacity="1"></path><path d="M255.9 72.23C255.5 72.68 255.2 73.12 254.8 73.57C240.4 90.16 221 107.1 201 119.9L201 120C201 151.8 221.2 177.3 247 182.1L247 157L227.2 164.4L220.8 147.6L256 134.4L291.2 147.6L284.8 164.4L265 157L265 182.1C290.8 177.3 311 151.8 311 120L311 117.9C290.9 105.7 271 88.91 255.9 72.23Z" class="" fill="#f5a623" fill-opacity="1"></path><path d="M201.7 174.1C119 190.9 89.15 244.9 89.02 271.8C89.21 276.1 90.99 278.6 97.94 281.5C105 284.4 116.8 286.1 131.9 285.1C158 283.4 193.8 274.4 233.7 256.6C224.3 253.9 213.5 252.1 203.1 250.9C185 249 168 249 160 249L160 231C168 231 185.7 231 205 233.1C220.2 234.7 236.4 237.4 250.2 243.1L228.6 195.1C218.2 190.4 209.1 183.2 201.7 174.1Z" class="" fill="#48baff" fill-opacity="1"></path><path d="M310 174.5C302.6 183.5 293.5 190.6 283.1 195.2L276.3 210.5C290.9 208 306.4 206.4 321.8 206.1C336 205.9 350.1 206.8 363.6 209.1C374.2 211 384.4 213.9 393.8 218C391.4 215.6 388.9 213.2 386.1 210.8C368.3 195.6 343.4 181.8 310 174.5Z" class="" fill="#f5a623" fill-opacity="1"></path><path d="M324.8 224.2C305.3 224.3 285.3 226.8 267.3 230.6L259.7 247.7C259.8 247.8 259.9 247.8 260 247.9C307.2 271.5 350.5 283.5 380.9 285.5C396 286.5 407.9 284.9 414.8 282C421.2 279.3 422.9 277.1 423 273C415.6 245.9 392.1 232.4 360.4 226.9C350.4 225.1 339.7 224.3 328.7 224.2L324.8 224.2Z" class="" fill="#f5a623" fill-opacity="1"></path><path d="M256 266C220.5 283.3 187.4 294.4 159.3 299.7C167.5 311.3 174 322.3 178.8 332.7C183.8 343.5 186.9 353.8 188.1 363.6C247.7 385.6 298.7 372.9 339.8 355.2C344.9 338.7 349.2 320.3 352.7 299.9C324.5 294.4 291.3 283.2 256 266Z" class="" fill="#f5a623" fill-opacity="1"></path><path d="M332.2 377.5C292.3 392.1 243 400.7 187.9 382.4C187 387.4 185.5 392.2 183.4 396.7C174.8 414.9 156.6 427.8 131.4 437.2C113 444.1 90.48 449.3 64.03 453.1C120.5 478.3 182.3 495.8 233.6 481.3C263.5 472.9 290.3 454.1 312.3 418.5C319.6 406.8 326.2 393.1 332.2 377.5Z" class="" fill="#f5a623" fill-opacity="1"></path></g></g></svg>