<svg xmlns="http://www.w3.org/2000/svg" viewBox="0 0 512 512" style="height: 512px; width: 512px;"><g class="" transform="translate(0,0)" style=""><g><path d="M58.03 24.5C23.27 94.19 12.043 159.392 21.813 208.344C31.59 257.324 60.537 290.206 109.97 299.906C110.243 307.781 111.31 315.529 113.125 323.062C113.127 323.072 113.123 323.084 113.125 323.094C84.998 350.731 70.155 384.519 69.625 420.124C118.005 433.581 152.139 424.114 176.188 401.219C182.594 404.289 189.363 406.814 196.468 408.719C203.596 410.629 210.738 411.832 217.844 412.374C218 413.331 218.164 414.274 218.344 415.218C225.29 452 247.24 480.26 292.53 491.81C309.62 462.274 313.857 427.816 303.47 383.904C308.644 379.404 313.437 374.422 317.78 369.029C340.248 383.329 361.042 388.549 379.938 386.624C399.268 384.654 417.123 375.222 433.156 358.344C464.422 325.428 487.389 263.581 493.062 181.468C468.688 169.92 444.899 164.731 422.062 164.811C397.482 164.897 374.007 170.981 352.032 181.404C335.952 189.03 320.74 199.074 306.719 210.874C293.109 198.024 276.246 188.266 256.936 183.092C245.273 179.967 233.538 178.722 222.061 179.186C215.225 179.462 208.491 180.366 201.905 181.811C178.323 111.115 129.416 47.12 58.03 24.5Z" class="" fill="#6304b8" fill-opacity="1"></path><path d="M81.97 91.188C100.636 91.188 115.563 106.114 115.563 124.781C115.563 143.453 100.637 158.376 81.969 158.376C63.299 158.376 48.343 143.45 48.343 124.782C48.343 106.116 63.3 91.189 81.968 91.189Z" class="" fill="#bd10e0" fill-opacity="1"></path><path d="M57.594 173.718C67.824 173.718 75.906 181.834 75.906 192.063C75.906 202.291 67.823 210.375 57.594 210.375C47.364 210.375 39.281 202.295 39.281 192.062C39.281 181.834 47.366 173.719 57.595 173.719Z" class="" fill="#fc88fc" fill-opacity="1"></path><path d="M213.75 198.594C181.164 210.654 157.937 242.004 157.937 278.781C157.937 325.991 196.197 364.281 243.407 364.281C280.837 364.281 312.647 340.219 324.219 306.721C323.669 311.573 322.771 316.449 321.469 321.313C307.414 373.761 253.759 404.743 201.311 390.688C148.864 376.635 117.883 322.948 131.936 270.501C142.528 230.973 175.634 203.647 213.749 198.595Z" class="selected" fill="#bd10e0" fill-opacity="1"></path><path d="M429.688 215.064C448.355 215.064 463.281 230.02 463.281 248.688C463.281 267.358 448.357 282.281 429.689 282.281C411.021 282.281 396.064 267.356 396.064 248.689C396.064 230.021 411.021 215.064 429.689 215.064Z" class="" fill="#ffffff" fill-opacity="1"></path><path d="M74.938 228.219C83.798 228.219 90.781 235.201 90.781 244.062C90.781 252.922 83.799 259.905 74.938 259.905C66.078 259.905 59.095 252.925 59.095 244.061C59.095 235.201 66.078 228.218 74.938 228.218Z" class="" fill="#ffffff" fill-opacity="1"></path><path d="M416.031 300.093C426.261 300.093 434.345 308.176 434.345 318.405C434.345 328.637 426.262 336.749 416.032 336.749C405.804 336.749 397.722 328.634 397.722 318.405C397.722 308.175 405.804 300.093 416.032 300.093Z" class="" fill="#ffffff" fill-opacity="1"></path><path d="M374.721 337.249C383.581 337.249 390.595 344.232 390.595 353.093C390.595 361.956 383.581 368.937 374.72 368.937C365.858 368.937 358.875 361.953 358.875 353.093C358.875 344.233 365.858 337.249 374.719 337.249Z" class="" fill="#ffffff" fill-opacity="1"></path><path d="M109.188 374.843C118.048 374.843 125.032 381.826 125.032 390.687C125.032 399.549 118.052 406.53 109.189 406.53C100.329 406.53 93.346 399.548 93.346 390.688C93.346 381.828 100.329 374.844 109.19 374.844Z" class="" fill="#ffffff" fill-opacity="1"></path><path d="M272.72 426.873C281.58 426.873 288.594 433.857 288.594 442.718C288.594 451.58 281.58 458.56 272.719 458.56C263.857 458.56 256.874 451.577 256.874 442.717C256.874 433.855 263.857 426.872 272.718 426.872Z" class="" fill="#ffffff" fill-opacity="1"></path></g></g></svg>