<svg xmlns="http://www.w3.org/2000/svg" viewBox="0 0 512 512" style="height: 512px; width: 512px;"><g class="" transform="translate(0,0)" style=""><g><path d="M129.4 18C136.8 26.62 145.8 34.58 155.8 42.01C169.3 52.06 184.6 61.11 200.3 69.04C204.2 64.1 208.6 59.53 213.3 55.39C196.6 47.23 180.3 37.83 166.5 27.58C162.3 24.46 158.4 21.25 154.7 18Z" class="" fill="#fc88fc" fill-opacity="1"></path><path d="M403.1 27.98C382.1 34.83 369.2 46.95 354.1 60.26C358.4 64.51 362.3 69.14 365.7 74.08C380.3 61.36 388.1 50.13 408.9 45.01C429.7 39.89 466.8 39.52 494 42.32L494 24.24C462.2 19.97 424.1 21.13 403.1 27.98Z" class="" fill="#fc88fc" fill-opacity="1"></path><path d="M281.1 47.89C233.8 47.89 195.7 86.23 195.7 133.8C195.7 181.4 233.8 219.8 281.1 219.8C286 219.8 290.8 219.4 295.4 218.6C293.9 190.9 283.6 162.7 262.9 136.6C266.2 131.2 269.3 125.6 272.3 120C275.9 126 281.6 129.6 287.7 129.6C298.3 129.6 306.8 119.3 306.8 106.5C306.8 94.08 298.7 83.9 288.4 83.47C292.6 71.68 295.6 60.15 297.1 49.4C291.9 48.41 286.6 47.89 281.1 47.89Z" class="" fill="#4a90e2" fill-opacity="1"></path><path d="M299.3 49.84C314.7 75.76 334.7 111 334.9 137.6C335.1 164.9 315 194.2 299.1 217.9C337.7 209.6 366.6 175.2 366.6 133.8C366.6 92.52 337.8 58.2 299.3 49.84Z" class="" fill="#08458f" fill-opacity="1"></path><path d="M145.7 82.64C106.8 83.29 61.57 109.9 24.55 135.6C22.33 137.1 20.15 138.7 18 140.2L18 162.4C23.33 158.4 28.94 154.4 34.81 150.3C70.76 125.4 115.7 101.1 145.9 100.6C153.6 100.5 167.2 106.2 179.6 113.3C180.9 107.1 182.7 101.1 185 95.37C172.6 88.28 159 82.42 145.7 82.64Z" class="" fill="#fc88fc" fill-opacity="1"></path><path d="M494 124C482 140.9 467.8 155.3 453.9 159.2C428.6 166.5 405 168.1 381.1 160.5C379.7 166.1 377.7 171.5 375.4 176.7C403.2 185.6 430.9 184.6 458.9 176.6C472.6 172.7 484.1 163.9 494 153.1Z" class="" fill="#fc88fc" fill-opacity="1"></path><path d="M183.3 167.9C175.7 171.3 167.1 174.3 158.1 177.1C126.7 186.6 89.37 193.1 64.15 215.9C51.02 227.8 46.35 245.6 43.48 263.9C40.6 282.3 39.69 301.8 36.85 318.1C32.92 331.8 29.86 348.2 18 354.3L18 373.3C23.15 372 27.75 369.8 31.81 366.9C46.1 356.5 51.45 339.1 54.59 321.2C57.72 303.2 58.61 283.6 61.26 266.7C63.91 249.8 68.48 236.3 76.23 229.3C95.82 211.5 130.6 204.3 163.3 194.3C172.8 191.4 182 188.3 190.7 184.3C187.8 179.1 185.3 173.6 183.3 167.9Z" class="" fill="#fc88fc" fill-opacity="1"></path><path d="M362.8 197.6C359.1 202.4 354.9 206.9 350.4 211C357.9 215.9 366 221.3 374.1 227.2C407.9 251.7 442.5 284.9 448.6 311.8C450.2 318.7 448.5 325.6 444.3 333.6C440 341.7 433.3 350.4 426.3 359.4C419.4 368.3 412.2 377.6 407.3 387.8C402.5 398.1 400.1 410.1 404.4 421.9L404.4 422C409 434.6 419.2 444.2 431.1 452.1C442.9 460 456.8 466.4 470.1 471.4C478.5 474.6 486.7 477.3 494 479.4L494 460.6C488.5 458.9 482.5 456.9 476.5 454.6C464 449.8 451.2 443.9 441.1 437.1C431 430.4 423.9 422.8 421.4 415.9L421.4 415.8C419 409.3 420 403.2 423.6 395.5C427.2 387.8 433.6 379.3 440.5 370.4C447.4 361.5 454.8 352.2 460.2 342C465.6 331.8 469 320.1 466.2 307.8C457.8 270.9 419.8 238.1 384.6 212.6C377.1 207.2 369.8 202.2 362.8 197.6Z" class="" fill="#fc88fc" fill-opacity="1"></path><path d="M215 213.7C186 236.6 170.4 261.6 164.4 287.5C157.6 316.9 163.2 346.4 173.4 374.3C134.7 392.7 96.47 405.4 70.65 429.5C60.29 439.6 58.97 454.5 61.11 468.9C62.33 477.1 64.69 485.6 67.67 494L86.88 494C83.1 484.3 80.16 474.7 78.92 466.3C77.19 454.6 78.82 446.7 83.19 442.5C113.6 420.3 150.7 402.9 180 391.1C192.6 423 211.9 453 224.2 482C226 486.2 227.5 490.2 228.7 494L247.6 494C245.9 487.8 243.6 481.5 240.9 475.1C227 441.6 208.6 412 196.2 383.2C227.6 367.3 257.5 347.8 274.4 318.2C286.7 296.7 288.1 265.6 287.3 237.6C281.2 237.9 274.8 237.8 269.2 237.1C270 264.2 267.4 294.2 258.8 309.2C244.9 333.3 218.9 351.2 189.6 366.3C180.7 341 176.4 315.7 181.9 291.6C187.2 268.8 201.2 246.1 230.4 224.4C224.9 221.3 219.8 217.7 215 213.7Z" class="" fill="#fc88fc" fill-opacity="1"></path><path d="M333.5 223.5C328.2 226.6 322.6 229.3 316.7 231.4C318.6 233.8 320.6 236.3 322.5 238.9C336 256.9 347.8 279.6 346.8 292.2C346.4 298.5 343.2 303.9 337.6 309.8C332 315.6 324 321.4 315.6 327.4C307.3 333.4 298.6 339.6 291.6 347.4C284.6 355.1 279.1 364.9 279.1 376.6C279.2 388.4 284.4 398.4 291.2 406.4C298.1 414.4 306.7 420.8 315.1 427C331.8 439.4 346.9 450.8 350 464.3C351.6 471.3 350.6 482.3 348.1 494L366.9 494C369.2 482.4 370 470.8 367.6 460.3C362.4 437.7 342.2 424.7 325.8 412.6C317.5 406.5 310 400.6 304.9 394.6C299.8 388.7 297.1 383.3 297.1 376.6C297.1 370.3 299.7 365.2 304.9 359.5C310.1 353.7 317.9 348 326.2 342C334.4 336.1 343.2 329.9 350.5 322.3C357.9 314.7 363.9 305.2 364.8 293.6C366.5 270.7 351.3 247.3 337 228.1C335.8 226.5 334.6 225 333.5 223.5Z" class="selected" fill="#fc88fc" fill-opacity="1"></path></g></g></svg>