<svg xmlns="http://www.w3.org/2000/svg" viewBox="0 0 512 512" style="height: 512px; width: 512px;"><g class="" transform="translate(0,0)" style=""><g><path d="M357.796 17.533C357.11 17.523 356.424 17.524 355.738 17.536C353.164 17.582 350.437 17.783 347.535 18.157C342.872 21.634 342.997 31.403 338.583 37.111C328.695 34.935 321.396 42.921 321.804 50.888L335.404 59.818C321.878 82.163 301.584 99.284 296.382 122.818C279.816 119.933 258.352 117.915 242.15 119.562C241.833 120.275 241.518 120.988 241.183 121.699C233.222 138.564 221.467 151.822 208.144 159.763C194.821 167.704 179.198 170.349 165.63 163.861C153.513 158.066 145.984 146.385 142.873 132.976C114.755 129.358 82.76 167.38 53.165 193.685C34.071 220.819 57.242 274.205 51.039 292.045C47.298 302.801 55.924 325.145 71.583 328.308C86.919 331.406 97.705 318.911 105.31 306.509C107.316 303.239 79.528 287.149 77.984 278.411C76.14 267.981 77.267 236.689 80.509 218.14C99.492 216.227 115.619 200.868 125.277 193.032C133.348 229.825 140.015 273.102 155.035 310.097C146.39 361.237 136.051 408.617 138.216 460.947L93.322 468.697C88.702 476.45 86.479 485.607 93.302 494.062C93.302 494.062 167.7 494.474 170.509 494.474C172.182 494.154 173.012 473.959 171.964 463.863C174.318 432.275 194.11 393.903 210.019 361.464C237.565 324.012 273.797 315.372 303.273 274.755C332.523 297.216 350.226 320.048 362.818 351.763C391.083 316.53 396.375 315.398 426.456 295.931C424.595 287.415 423.986 278.427 411.919 273.738C391.379 281.202 400.269 275.418 372.46 292.574C357.74 270.672 343.38 241.826 314.61 230.46C310.75 229.543 269.509 241.655 237.974 268.618C242.681 245.336 247.686 212.406 249.388 180.695C270.328 175.765 295.3 160.517 315.178 151.984C351.471 122.671 345.408 97.827 358.058 68.514L365.508 66.524C374.408 52.203 380.071 38.055 382.402 23.734C375.623 20.244 367.922 17.675 357.796 17.533Z" class="" fill="#666262" fill-opacity="1"></path><path d="M209.613 50.449C204.437 50.405 198.687 52.117 192.628 55.728C182.935 61.506 173.19 72.126 166.621 86.042C160.051 99.958 158.026 114.271 159.699 125.484C161.371 136.697 166.291 144.224 173.314 147.584C180.337 150.942 189.244 150.025 198.937 144.247C208.63 138.469 218.376 127.849 224.945 113.933C231.514 100.017 233.539 85.704 231.867 74.491C230.194 63.278 225.272 55.752 218.249 52.394C215.616 51.134 212.718 50.474 209.613 50.449Z" class="selected" fill="#57040e" fill-opacity="1"></path><path d="M450.296 337.197C446.517 337.335 442.428 339.167 438.366 343.027C434.344 346.926 431.345 352.053 429.322 358.067C427.299 364.082 426.092 370.09 427.423 375.562C431.322 391.578 424.474 376.824 423.562 370.2C422.985 365.828 423.017 360.301 422.359 352.392L404.421 353.884C404.807 358.516 404.91 362.447 405.151 366.335L388.757 367.46C393.845 388.63 392.708 416.922 421.798 414.58C413.852 436.973 400.644 460.503 385.154 485.94L400.527 495.302C408.799 481.719 416.663 468.435 423.525 455.29C428.515 470.011 436.683 482.71 443.232 494.884L459.083 486.357C450.143 469.737 440.849 455.321 437.921 439.107C443.032 423.055 447.926 406.37 449.471 389.232C456.986 385.372 461.97 376.848 464.301 370.083C466.323 364.069 467.037 358.158 466.199 352.589C463.597 342.839 457.511 336.932 450.296 337.197Z" class="" fill="#ffe0af" fill-opacity="1"></path></g></g></svg>