<svg xmlns="http://www.w3.org/2000/svg" viewBox="0 0 512 512" style="height: 512px; width: 512px;"><g class="" transform="translate(0,0)" style=""><g><path d="M256 33C247.5 33 234.682 38.745 220.94 49.17C207.197 59.595 192.511 74.225 178.773 89.926C159.176 112.323 141.513 136.979 130.363 154.523L179.945 191.711L229.175 204.018L231.463 197.154L248.537 202.846L233.58 247.719L256 303.769L278.42 247.719L263.463 202.846L280.537 197.154L282.824 204.018L332.054 191.711L381.637 154.523C370.487 136.979 352.824 112.323 333.227 89.926C319.489 74.226 304.803 59.596 291.061 49.17C277.318 38.745 264.5 33 256 33Z" class="" fill="#417505" fill-opacity="1"></path><path d="M164.51 128.213L240.51 172.213L231.49 187.787L155.49 143.787Z" class="" fill="#417505" fill-opacity="1"></path><path d="M347.49 128.213L356.51 143.787L280.51 187.787L271.49 172.213Z" class="" fill="#417505" fill-opacity="1"></path><path d="M17.21 146.625C49.014 179.598 80.423 220.033 93.51 258.482C95.1 255.774 96.89 253.149 98.802 250.6C103.811 243.92 109.838 237.628 115.942 231.447C106.992 218.563 104.19 202.359 103.337 188.561C74.029 164.419 49.421 150.868 17.21 146.625Z" class="" fill="#417505" fill-opacity="1"></path><path d="M494.792 146.625C462.582 150.868 437.973 164.419 408.665 188.561C407.812 202.359 405.011 218.563 396.06 231.447C402.164 237.628 408.191 243.921 413.2 250.6C415.112 253.15 416.903 255.774 418.491 258.482C431.579 220.033 462.988 179.598 494.792 146.625Z" class="" fill="#417505" fill-opacity="0"></path><path d="M121.147 170.109C121.124 170.154 121.093 170.209 121.069 170.254C121.206 186.63 123.076 214.349 134.364 225.637L140.728 232L134.364 238.363C126.364 246.363 118.624 254.168 113.2 261.4C108.512 267.651 105.873 273.223 105.235 277.852L186.353 308.27C191.053 301.423 196.257 295.017 201.638 289.637L217.667 273.607L216.997 296.266C216.747 304.697 216.614 312.397 216.765 319.676L247.605 331.24L214.707 249L163.727 249L150.363 262.363L137.637 249.637L148.949 238.324L135.418 180.812Z" class="" fill="#417505" fill-opacity="1"></path><path d="M390.855 170.109L376.583 180.812L363.052 238.324L374.364 249.637L361.638 262.363L348.273 249L297.293 249L264.396 331.24L295.238 319.674C295.388 312.396 295.256 304.696 295.006 296.266L294.334 273.607L310.364 289.637C315.744 295.017 320.948 301.425 325.648 308.271L380.84 287.574L406.766 277.852C406.128 273.222 403.489 267.652 398.801 261.4C393.377 254.168 385.637 246.363 377.637 238.363L371.273 232L377.637 225.637C388.925 214.349 390.795 186.63 390.932 170.254C390.908 170.209 390.877 170.154 390.854 170.109Z" class="" fill="#d0021b" fill-opacity="1"></path><path d="M157.867 197.65L165.715 231L183 231L183 211.025L172.055 208.289Z" class="" fill="#ffffff" fill-opacity="0"></path><path d="M354.133 197.65L339.945 208.29L329 211.024L329 231L346.285 231Z" class="" fill="#ffffff" fill-opacity="0"></path><path d="M201 215.525L201 231L220.18 231L223.467 221.143Z" class="" fill="#000000" fill-opacity="1"></path><path d="M311 215.525L288.533 221.143L291.82 231L311 231Z" class="selected" fill="#ffffff" fill-opacity="1"></path><path d="M105.209 278.035C105.154 278.452 105.115 278.871 105.092 279.291C112.882 316.715 140.077 367.752 171.158 408.547C186.84 429.129 203.498 447.196 218.74 459.818C233.983 472.441 248 479 256 479C264 479 278.017 472.441 293.26 459.818C308.502 447.196 325.16 429.129 340.842 408.547C371.923 367.752 399.119 316.715 406.908 279.291C406.888 278.881 406.845 278.461 406.791 278.035L358.764 350.078L256 435.715L153.236 350.078Z" class="" fill="#417505" fill-opacity="1"></path><path d="M150.965 314.223L166.764 337.922L169.732 340.396C171.485 334.987 173.991 329.49 176.908 323.951Z" class="" fill="#000000" fill-opacity="1"></path><path d="M361.035 314.223L335.092 323.951C338.009 329.49 340.515 334.987 342.268 340.396L345.236 337.922Z" class="" fill="#000000" fill-opacity="1"></path><path d="M198.906 321.953C197.124 324.713 195.426 327.511 193.9 330.309C189.63 338.139 186.724 346.026 185.572 351.564L205.242 364.678C201.126 350.446 199.378 336.63 198.906 321.953Z" class="" fill="#ffffff" fill-opacity="1"></path><path d="M313.094 321.953C312.622 336.63 310.874 350.446 306.758 364.678L326.428 351.564C325.276 346.026 322.371 338.139 318.1 330.309C316.573 327.511 314.876 324.713 313.094 321.953Z" class="" fill="#ffffff" fill-opacity="1"></path><path d="M293.867 339.41L265 350.236L265 404.786L272.793 398.291L279.951 383.975C287.991 367.894 292.002 354.025 293.867 339.41Z" class="" fill="#000000" fill-opacity="1"></path><path d="M218.133 339.412C219.997 354.026 224.009 367.895 232.049 383.975L239.207 398.291L247 404.785L247 350.236Z" class="" fill="#000000" fill-opacity="1"></path></g></g></svg>