<svg xmlns="http://www.w3.org/2000/svg" viewBox="0 0 512 512" style="height: 512px; width: 512px;"><g class="" transform="translate(0,0)" style=""><g><path d="M256 51C254.784 52.157 252.765 54.694 250.405 58.47C245.853 65.753 239.811 77.703 232.022 93.27L232.022 103.21C238.212 107.962 246.928 110.836 256 110.836C265.072 110.836 273.787 107.962 279.978 103.209L279.978 93.269C272.188 77.702 266.148 65.752 261.595 58.469C259.235 54.693 257.215 52.156 256 50.999Z" class="selected" fill="#ffffff" fill-opacity="1"></path><path d="M213.257 105.286C185.087 112.181 157.387 125.906 131.082 146.418C115.042 227.124 99.882 322.248 114.192 400.983C120.38 403.305 126.879 405.423 133.595 407.381L130.533 395.124L126.228 388.669L134.035 383.465C140.339 379.262 147.575 375.615 155.522 372.475C150.494 365.698 147.196 357.035 143.977 348.189C138.517 333.176 134.317 316.349 130.323 304.161L120.531 274.291L145.096 293.907C169.566 313.45 194.228 326.611 228.014 350.221L238.084 357.258C244.028 356.998 250.012 356.868 256.001 356.868C261.991 356.868 267.974 356.998 273.917 357.258L283.987 350.221C317.774 326.611 342.437 313.451 366.907 293.907L391.47 274.291L381.677 304.161C377.682 316.351 373.484 333.176 368.023 348.189C364.803 357.036 361.506 365.699 356.478 372.476C364.426 375.614 371.661 379.262 377.965 383.466L385.772 388.669L381.467 395.124L378.405 407.382C385.121 405.426 391.62 403.307 397.807 400.985C412.117 322.249 396.957 227.125 380.917 146.42C354.612 125.91 326.913 112.183 298.743 105.288L298.743 111.598L295.993 114.344C285.443 124.896 270.595 129.604 256 129.604C241.405 129.604 226.558 124.896 216.006 114.344L213.256 111.598L213.256 105.288Z" class="" fill="#417505" fill-opacity="1"></path><path d="M289.237 161.162L302.627 174.307L296.055 181.002C283.145 194.149 268.887 200.606 254.778 199.867C240.67 199.127 227.985 191.79 216.388 181.425L209.393 175.172L221.897 161.182L228.893 167.432C238.667 176.167 247.681 180.705 255.76 181.128C263.84 181.551 272.255 178.458 282.665 167.856L289.238 161.162Z" class="" fill="#b57204" fill-opacity="1"></path><path d="M139.239 165.047C159.046 165.047 180.603 174.167 200.091 184.993C219.578 195.819 236.507 208.39 245.953 217.836L232.685 231.103C225.451 223.869 209.02 211.42 190.977 201.396C172.934 191.372 152.791 183.812 139.237 183.812L139.237 165.047Z" class="" fill="#b57204" fill-opacity="1"></path><path d="M372.759 165.047L372.759 183.812C359.207 183.812 339.064 191.372 321.021 201.396C302.978 211.42 286.547 223.869 279.313 231.103L266.045 217.836C275.491 208.39 292.42 195.819 311.907 184.993C331.395 174.166 352.952 165.047 372.76 165.047Z" class="" fill="#b57204" fill-opacity="1"></path><path d="M145.872 201.157C162.552 217.837 193.449 248.447 239.319 248.447L239.319 248.763L256.076 224.549L272.679 249.024L272.679 248.446C318.549 248.446 349.446 217.836 366.126 201.156L379.394 214.422C371.16 222.655 358.254 235.619 340.784 246.64C345.7 251.395 348.782 258.037 348.782 265.337C348.782 279.62 337.002 291.4 322.719 291.4C308.437 291.4 296.657 279.62 296.657 265.337C296.657 265.154 296.667 264.973 296.671 264.791C292.771 265.589 288.749 266.206 284.611 266.619L312.685 308.005L308.895 313.32C301.743 323.346 292.238 329 282.862 331.524C273.486 334.049 264.339 333.934 255.999 333.934C247.659 333.934 238.503 334.041 229.055 331.534C219.607 329.027 209.99 323.484 202.385 313.584L198.215 308.159L226.988 266.579C222.988 266.169 219.101 265.562 215.326 264.789C215.33 264.972 215.34 265.153 215.34 265.336C215.34 279.619 203.56 291.399 189.278 291.399C174.995 291.399 163.215 279.619 163.215 265.336C163.215 258.036 166.297 251.394 171.213 246.64C153.743 235.62 140.837 222.656 132.603 214.423L145.871 201.156Z" class="" fill="#d0021b" fill-opacity="1"></path><path d="M17.796 217.267C20.746 224.199 26.163 232.997 34.336 244.68C46.791 262.48 63.892 286.315 80.911 320.354C82.759 324.051 85.498 326.434 89.551 328.128C89.621 314.321 90.228 300.402 91.251 286.472L66.375 264.922L78.661 250.738L93.299 263.418C94.237 254.402 95.325 245.411 96.529 236.47C88.589 230.24 78.806 226.054 67.965 223.097C51.337 218.562 33.022 217.517 17.795 217.267Z" class="" fill="#417505" fill-opacity="1"></path><path d="M494.202 217.267C478.976 217.517 460.662 218.562 444.032 223.097C433.192 226.054 423.409 230.239 415.47 236.47C416.674 245.41 417.762 254.402 418.7 263.417L433.338 250.737L445.624 264.922L420.749 286.472C421.769 300.402 422.377 314.32 422.449 328.128C426.499 326.434 429.239 324.051 431.087 320.354C448.107 286.314 465.207 262.481 477.662 244.68C485.835 232.998 491.252 224.2 494.202 217.268Z" class="" fill="#417505" fill-opacity="1"></path><path d="M255.922 257.747L221.81 307.04C225.55 310.387 229.418 312.215 233.87 313.396C240.135 315.059 247.66 315.168 256 315.168C264.34 315.168 271.874 315.051 277.982 313.406C282.327 312.236 285.992 310.466 289.458 307.19L255.923 257.748Z" class="" fill="#d0021b" fill-opacity="1"></path><path d="M189.279 258.039C185.137 258.039 181.981 261.194 181.981 265.336C181.981 269.476 185.137 272.633 189.279 272.633C193.419 272.633 196.576 269.477 196.576 265.336C196.576 261.194 193.42 258.038 189.279 258.038Z" class="" fill="#000000" fill-opacity="1"></path><path d="M322.719 258.039C318.579 258.039 315.422 261.194 315.422 265.336C315.422 269.476 318.578 272.633 322.719 272.633C326.861 272.633 330.017 269.477 330.017 265.336C330.017 261.194 326.861 258.038 322.719 258.038Z" class="" fill="#000000" fill-opacity="1"></path><path d="M156.397 325.379C158.081 330.983 159.752 336.659 161.611 341.771C165.664 352.911 170.861 360.951 174.109 364.195L201.567 355.042C185.187 344.185 170.453 334.962 156.397 325.38Z" class="" fill="#ffffff" fill-opacity="1"></path><path d="M355.601 325.379C341.545 334.962 326.811 344.185 310.431 355.042L337.889 364.195C341.136 360.95 346.334 352.912 350.387 341.771C352.247 336.659 353.917 330.983 355.601 325.381Z" class="" fill="#ffffff" fill-opacity="1"></path><path d="M256 375.634C214.788 375.634 173.36 383.192 150.03 395.754L163.61 450.074C225.278 464.644 286.722 464.644 348.39 450.074L361.97 395.754C338.64 383.192 297.212 375.634 256 375.634Z" class="" fill="#417505" fill-opacity="1"></path><path d="M255.982 386.177C279.382 386.097 302.808 390.344 326.056 399.182L334.826 402.516L328.156 420.058L319.386 416.722C276.92 400.578 235.163 401.15 192.506 416.762L183.692 419.988L177.244 402.365L186.054 399.142C209.206 390.669 232.581 386.259 255.982 386.178Z" class="" fill="#b57204" fill-opacity="1"></path></g></g></svg>