<svg xmlns="http://www.w3.org/2000/svg" viewBox="0 0 512 512" style="height: 512px; width: 512px;"><g class="" transform="translate(0,0)" style=""><g><path d="M256 415L113.1 368.3L123.3 318.6C123.3 318.6 -3.386 356.1 26 71.4L149.6 220.3L256 200.1L362.4 220.3L486 71.4C515.4 356.1 388.7 318.6 388.7 318.6L398.9 368.3Z" class="" fill="#417505" fill-opacity="1"></path><path d="M256 316.6L220.2 318.4L200.5 353.9L173.5 320.6L152.7 321.7C156.2 360.3 193.9 376.5 247 382.6L259.4 357.8L284.8 379.7C327.3 371.9 356.2 355.3 359.3 321.7L337.2 320.6L300.9 352L288.2 318.2Z" class="" fill="#000000" fill-opacity="1"></path><path d="M439.4 213.2C449.8 281 403.3 285.1 403.3 285.1L406 297.3C406 297.3 480.2 300.5 467.8 135.2L382.7 243.1Z" class="" fill="#d0021b" fill-opacity="1"></path><path d="M129.3 243.1L44.24 135.2C31.75 300.5 106 297.3 106 297.3L108.7 285.1C108.7 285.1 62.24 281 72.61 213.2Z" class="" fill="#d0021b" fill-opacity="1"></path><path d="M275.3 285.2L306.7 285.7L318.8 272.6L334.1 285.8L365.4 286.2C356.2 243.1 291.5 217.2 275.3 285.2Z" class="selected" fill="#ffffff" fill-opacity="1"></path><path d="M146.6 286.2L177.9 285.8L193.2 272.6L205.3 285.7L236.7 285.2C220.5 217.2 155.8 243.1 146.6 286.2Z" class="" fill="#ffffff" fill-opacity="1"></path></g></g></svg>