<svg xmlns="http://www.w3.org/2000/svg" viewBox="0 0 512 512" style="height: 512px; width: 512px;"><g class="" transform="translate(0,0)" style=""><g><path d="M345.922 16.967C342.977 16.945 340.152 17.246 337.584 17.98C329.997 20.15 320.584 30.99 316.471 36.111C294.014 45.542 261.384 63.355 257.742 84.914C258.136 109.744 279.931 120.054 297.695 129.784C329.773 149.93 260.045 184.594 238.585 197.637C243.718 202.125 248.85 206.506 254.635 210.674C278.366 198.735 328.717 182.735 340.482 159.652C342.417 154.152 342.369 148.211 340.57 143.199C338.772 138.188 335.58 134.185 331.963 130.773C319.298 117.803 270.78 101.436 275.633 86.879C282.769 65.473 307.853 58.411 327.465 51.203C346.093 54.798 371.307 55.286 375.156 47.209C377.316 42.679 349.186 49.277 346.537 39.789C345.369 35.607 389.026 30.969 379.549 26.174C373.669 23.199 358.682 17.062 345.922 16.967Z" class="" fill="#417505" fill-opacity="1"></path><path d="M192.302 18.43C190.146 18.466 188.211 19.074 186.645 20.477C181.208 25.527 185.555 39.787 192.275 51.523L201.235 44.863L199.635 62.113C203.683 66.733 210.008 69.635 214.893 71.445C222.037 86.015 199.396 95.022 190.75 101.848C184.252 56.808 103.51 66.195 106.357 103.514C94.211 99.512 84.63 87.922 78.33 79.74C78.255 70.044 77.337 50.674 71.38 42.875C66.933 37.222 25.995 11.308 21.06 21.594C17.463 29.093 42.903 58.168 53.502 75.371C69.906 98.696 81.637 119.304 108.142 122.975C110.224 139.757 149.738 209.563 174.576 207.262C188.606 204.451 211.776 191.919 222.459 184.952C181.351 173.074 145.46 165.509 128.252 126.445C144.404 128.202 166.322 127.13 178.939 119.213C171.312 155.095 226.685 172.943 241.295 172.342C258.709 171.625 268.647 157.536 261.275 153.254C242.845 146.054 197.422 143.823 198.449 124.742C202.753 100.796 245.929 102.164 233.604 68.326C233.082 60.989 231.794 50.272 228.574 42.539L211.76 38.23L220.797 32.201C215.158 28.865 201.65 18.273 192.303 18.43Z" class="" fill="#417505" fill-opacity="1"></path><path d="M341.629 23.057L357.258 28.504L338.004 32.328Z" class="" fill="#417505" fill-opacity="1"></path><path d="M449.96 34.885C441.693 34.758 432.091 40.18 426.645 43.398L433.493 52.232L416.193 50.982C412.92 53.865 410.565 58.122 409.089 61.516C404.667 64.509 400.317 67.606 396.042 70.805C381.471 81.739 365.076 95.273 357.472 110.893C350.674 124.855 353.81 139.412 355.696 151.683C357.582 163.955 358.296 173.478 354.169 179.787C312.571 190.768 303.122 222.189 347.315 205.299C355.295 202.079 363.827 197.9 369.231 189.639C377.875 176.424 375.413 161.494 373.485 148.949C371.557 136.405 370.239 125.783 373.653 118.769C378.175 109.481 392.933 95.676 406.569 85.409C413.315 84.974 427.072 83.619 436.372 79.521L440.339 62.621L446.552 71.535C455.509 60.875 463.193 42.952 457.577 37.148C455.322 35.586 452.715 34.927 449.96 34.885Z" class="" fill="#417505" fill-opacity="1"></path><path d="M47.99 38.363L63.177 44.941L59.563 54.219Z" class="" fill="#417505" fill-opacity="1"></path><path d="M148.892 87.6C160.784 87.515 172.592 91.548 173.255 96.916C171.872 112.518 132.532 109.67 124.231 107.796C121.827 93.079 135.414 87.696 148.891 87.6Z" class="" fill="#000000" fill-opacity="0.01"></path><path d="M458.552 95.797C455.252 95.781 451.927 96.335 448.606 97.247C441.704 99.167 435.141 102.518 429.171 106.1C423.123 105.347 417.326 105.294 413.347 106.783C395.43 113.49 372.904 143.399 378.394 148.775C402.22 158.451 454.112 110.028 461.56 114.387C487.016 149.243 410.882 152.385 402.755 160.537C388.159 172.684 405.251 213.199 393.554 218.475C362.411 232.52 316.479 225.399 286.774 215.514C282.533 217.865 278.202 220.051 273.792 222.066C305.654 233.984 329.223 239.649 359.976 241.863C375.786 242.95 394.496 243.514 407.251 232.173C424.54 218.198 408.127 183.872 417.606 175.603C433.233 161.973 462.561 169.015 474.566 152.523C479.768 144.646 484.083 136.113 483.964 126.145C483.844 116.176 480.754 105.16 471.099 99.125C466.999 96.777 462.795 95.817 458.552 95.797Z" class="" fill="#417505" fill-opacity="1"></path><path d="M412.946 115.232L420.778 121.379L402.249 127.861Z" class="" fill="#417505" fill-opacity="1"></path><path d="M73.857 120C73.077 119.995 72.297 120.035 71.521 120.12C55.472 121.864 42.377 140.053 36.607 154.494C32.439 157.926 28.27 161.861 25.334 165.828L30.287 182.463L20.467 177.813C17.989 191.513 20.225 210.886 27.982 213.133C35.11 215.197 45.102 204.135 51.711 192.336L41.391 188.076L57.006 180.576C59.342 172.556 57.453 163.069 55.604 155.93C58.799 150.865 63.226 137.029 70.512 138.088C91.356 141.118 90.047 193.133 94.802 210.533C98.168 222.049 107.508 239.959 119.656 243.523C161.834 255.899 198.536 230.643 234.654 217.824C229.932 213.974 226.221 210.741 221.996 207.029C193.471 214.187 156.81 237.032 129.453 223.299C124.094 219.919 114.831 214.904 112.078 205.484C105.61 183.374 107.041 159.251 98.199 139.521C93.887 130.177 85.341 120.091 73.857 120Z" class="" fill="#417505" fill-opacity="1"></path><path d="M475.15 186.475C474.853 186.475 474.464 186.597 473.974 186.854C467.272 191.421 449.714 205.755 446.528 219.641C444.928 226.619 448.831 238.269 451.438 244.93C448.934 256.547 438.603 290.934 429.248 291.484C408.356 292.714 398.148 250.402 377.658 247.359C355.435 244.059 351.776 256.748 355.988 270.281C358.616 278.723 372.23 263.95 375.291 265.201C396.898 274.037 396.739 296.474 413.121 307.01C398.286 305.034 385.004 304.248 371.821 306.799C341.876 255.491 310.257 266.601 336.902 309.793C339.015 313.218 345.829 314.866 349.955 316.525C344.293 321.49 340.175 328.725 340.415 337.027C342.167 350.783 355.361 356.807 366.627 358.525C378.991 360.117 393.773 356.799 398.203 345.945C400.21 340.685 399.915 334.798 397.988 330.043C396.97 327.53 395.571 325.312 393.967 323.263C405.311 323.679 416.812 325.813 423.757 328.857C441.944 343.952 449.872 363.972 456.65 386.324C454.235 391.654 449.458 397.09 447.227 402.17L455.873 417.23L445.248 414.96C445.984 428.865 452.608 447.206 460.674 447.611C468.084 447.984 475.268 434.921 478.99 421.92L467.969 420.145L481.445 409.258C481.913 402.105 478.832 394.503 476.148 388.963C467.276 361.067 453.021 320.983 428.378 311.303C454.508 308.947 467.193 264.881 469.816 245.443L470.048 245.377C482.398 230.816 495.581 208.267 490.271 200.859C487.346 196.78 479.536 224.597 469.948 222.334C463.698 213.791 479.605 186.469 475.15 186.474Z" class="" fill="#417505" fill-opacity="1"></path><path d="M465.245 207.496L459.295 226.203L452.929 218.551Z" class="" fill="#417505" fill-opacity="1"></path><path d="M52.93 226.662C48.887 226.663 44.97 227.414 41.412 229.1C28.155 235.823 23.661 251.468 25.135 266.773C26.609 282.079 34.201 298.618 48.895 310.436C88.888 337.497 144.853 327.058 170.562 295.113C175.329 328.193 141.264 363.291 112.918 362.493C83.704 361.669 48.088 317.5 27.932 339.416C12.86 355.802 29.9 380.6 39.66 394.463C42.628 406.789 41.854 415.138 49.92 423.93C60.02 433.977 82.516 436.736 90.621 437.025C101.236 437.405 65.252 412.255 68.295 409.158C75.198 402.13 96.639 421.498 96.937 416.488C97.448 407.913 76.893 396.728 59.279 390.67C54.91 383.862 35.565 357.86 41.002 351.787C49.788 345.354 91.579 382.847 115.033 381.412C141.576 379.015 164.643 363.448 178.479 341.555C181.591 335.218 187.653 320.165 187.909 303.26C188.355 273.71 188.307 258.012 163.445 265.082C147.409 269.642 143.8 300.869 110.145 306.66C86.532 310.326 70.767 304.93 60.174 296.41C49.58 287.89 44.07 275.632 43.051 265.049C42.031 254.466 45.655 247.13 49.555 245.152C50.968 244.435 52.748 243.995 55.415 244.389C70.308 271.998 110.012 293.805 116.039 290.537C122.794 286.875 109.346 251.93 93.959 240.563C90.549 238.043 84.975 236.503 78.967 235.566C71.33 230.286 61.824 226.66 52.93 226.662Z" class="" fill="#417505" fill-opacity="1"></path><path d="M252.604 230.527C233.681 237.312 220.147 242.002 204.107 248.271C212.852 257.612 224.608 265.487 240 272C225.73 269.51 212.085 278.555 205.23 264.854C207.273 278.492 207.12 292.374 205.813 305.1C203.978 322.942 200.221 338.088 195.243 348.346C209.374 368.943 235.265 386.563 256 387.002C278.618 387.52 317.109 358.313 327.59 326.826C320.062 321.349 312.798 314.473 310.059 306.886C307.486 299.398 308.109 291.933 309.58 285.17C312.009 274.002 316.44 263.688 318.12 254.307C315.485 253.797 312.858 253.25 310.238 252.668C309.284 258.588 307.366 266.101 303.582 269.168C295.371 275.823 272 272 272 272C285.648 266.225 296.431 259.376 304.799 251.387C281.973 245.767 265.595 238.449 252.604 230.527Z" class="" fill="#293b14" fill-opacity="1"></path><path d="M92.024 248.8L98.844 263.88L82.804 252.56Z" class="" fill="#417505" fill-opacity="1"></path><path d="M240 288C256 292.47 256 292.55 272 288L256 304Z" class="" fill="#000000" fill-opacity="1"></path><path d="M208 320C208 320 217.351 324.796 228.568 329.137L240 352L240 333.08C245.778 334.8 251.418 336 256 336C260.582 336 266.222 334.8 272 333.08L272 352L283.432 329.137C294.649 324.796 304 320 304 320L272 368C256 360.17 256 360.212 240 368Z" class="" fill="#000000" fill-opacity="1"></path><path d="M368.584 325.9C368.901 325.901 369.202 325.94 369.484 326.018C374.815 327.485 385.936 335.649 381.387 339.531C375.489 344.565 363.642 340.969 358.408 336.348C355.739 333.991 363.835 325.879 368.584 325.9Z" class="" fill="#417505" fill-opacity="1"></path><path d="M333.873 354.893C330.515 360.431 327.101 365.338 323.313 369.99C327.955 372.316 331.679 374.019 334.672 377.871C323.26 402.806 272.915 398.137 285.326 427.805C291.645 439.913 301.628 443.731 313.932 442.158C334.288 439.918 383.396 408.766 393.943 422.822C398.693 429.152 393.683 439.528 391.163 447.402C372.958 453.14 349.826 465.166 350.367 474.256C350.665 479.266 372.104 459.9 379.007 466.928C382.05 470.025 346.067 495.174 356.682 494.795C364.787 494.505 387.285 491.746 397.385 481.699C402.557 476.554 405.485 464.247 406.795 457.287C411.638 442.941 417.719 421.661 406.715 410.143C397.643 401.005 384.685 400.415 373.219 402.797C352.039 404.009 319.356 429.851 304.74 423.943C294.31 418.27 334.698 402.714 341.8 398.01C348.437 393.244 354.829 385.342 353.795 375.51C350.682 365.436 341.886 358.524 333.873 354.893Z" class="" fill="#417505" fill-opacity="1"></path><path d="M185.596 366.039C177.792 390.949 177.998 402.469 154.216 401.441C131.057 400.441 109.046 415.656 108.906 439.273C112.546 477.611 164.874 476.683 187.982 470.859C196.019 468.313 208.77 474.58 218.818 473.08C237.664 469.793 265.32 444.552 260.916 438.256C256.946 432.58 210.773 434.414 185.256 452.975C171.504 454.251 123.717 458.053 126.902 439.014C131.954 408.818 169.562 424.954 184.541 411.199C192.345 403.657 197.071 393.189 200.279 382.213C194.971 377.423 190.054 371.995 185.596 366.039Z" class="" fill="#417505" fill-opacity="1"></path><path d="M58.21 414.053L73.223 426.7L56.908 423.92Z" class="" fill="#417505" fill-opacity="1"></path><path d="M233.612 454.413L220.77 464.85L214.207 457.365Z" class="" fill="#417505" fill-opacity="1"></path><path d="M389.091 471.82L390.395 481.69L374.079 484.47Z" class="selected" fill="#417505" fill-opacity="1"></path></g></g></svg>