<svg xmlns="http://www.w3.org/2000/svg" viewBox="0 0 512 512" style="height: 512px; width: 512px;"><g class="" transform="translate(0,0)" style=""><g><path d="M110 18.906C106.234 27.92 107.062 34.816 107.062 46.938C107.062 73.933 131.138 95.351 159.625 99.5C178.905 102.307 198.94 104.258 219.219 105.313C210.659 112.703 205.312 123.405 205.312 140.437C205.312 158.013 211.748 178.293 221.874 193.407C232 208.519 245.107 217.781 257.904 217.781C270.704 217.781 283.81 208.521 293.937 193.407C304.063 178.294 310.499 158.015 310.499 140.437C310.499 123.251 305.069 112.491 296.374 105.095C315.427 104.005 334.228 102.143 352.374 99.501C380.861 95.354 403.844 75.781 404.937 46.938C405.305 37.215 403.3 28.198 401.999 18.908C399.056 46.618 375.794 64.598 347.686 68.564C287.853 77.007 224.146 77.007 164.311 68.564C136.204 64.598 112.941 46.619 109.999 18.907Z" class="" fill="#4a4a4a" fill-opacity="1"></path><path d="M189.78 118.219C-59.148 125.432 -10.848 312.512 167.656 360.719C208.468 321.263 161.106 258.782 123.936 303.686C100.716 260.212 103.262 220.916 128.436 208.656C177.156 235.723 212.002 297.176 214.562 357.061C180.967 380.209 154.937 420.093 154.937 420.093L181.281 458.873L139.971 482.373L222.095 482.373C181.582 441.853 210.325 396.28 258.315 396.28C306.96 396.28 332.435 444.5 294.563 482.375L375.845 482.375L335.375 458.875L361.72 420.095C361.72 420.095 335.262 379.593 301.28 356.531C304.024 296.815 338.8 235.644 387.375 208.657C412.551 220.919 415.097 260.214 391.875 303.687C354.707 258.784 307.345 321.265 348.155 360.72C526.655 312.514 574.943 125.44 326.031 118.22C328.085 124.95 329.189 132.39 329.189 140.438C329.189 162.388 321.766 185.462 309.469 203.813C297.174 222.163 279.299 236.469 257.907 236.469C236.515 236.469 218.641 222.163 206.345 203.812C194.049 185.46 186.625 162.386 186.625 140.437C186.625 132.389 187.73 124.949 189.782 118.217Z" class="selected" fill="#4a4a4a" fill-opacity="1"></path></g></g></svg>