<svg xmlns="http://www.w3.org/2000/svg" viewBox="0 0 512 512" style="height: 512px; width: 512px;"><g class="" transform="translate(0,0)" style=""><g><path d="M300.576 62.504C295.433 62.529 289.59 63.049 282.867 63.957C281.035 75.967 279.047 88.212 277.1 100.643C277.22 100.594 277.328 100.546 277.45 100.498L284.1 117.225C271.21 122.349 263.307 127.441 259.717 131.217C256.127 134.992 256.238 136.057 256.997 138.551C257.754 141.044 260.967 145.489 266.973 150.295C272.979 155.101 281.433 160.287 291.311 165.523L282.881 181.428C277.519 178.585 272.474 175.729 267.818 172.816C266.326 190.478 265.588 208.319 266.111 226.221C297.755 231.581 326.603 235.391 368.209 216.875C367.729 217.089 369.063 216.258 370.279 213.447C371.496 210.637 372.581 206.359 373.147 201.607C374.277 192.113 373.255 180.569 370.747 173.837L357.242 140.809L355.372 116.486L355.367 116.398C354.942 108.972 351.013 95.726 345.167 84.967C339.323 74.208 331.196 66.596 326.984 65.686C317.351 63.604 309.596 62.461 300.576 62.504Z" class="" fill="#f5a623" fill-opacity="1"></path><path d="M264.456 64.906C199.106 72.436 141.72 99 107.876 175.696C122.024 182.262 152.339 188.021 181.126 190.004C196.658 191.074 211.94 191.259 224.474 190.557C235.309 189.95 244.391 188.339 248.642 186.992C249.147 177.95 249.902 168.992 250.802 160.109C245.688 155.337 241.703 150.137 239.772 143.785C237.257 135.509 240.022 125.806 246.672 118.813C249.563 115.773 253.073 112.983 257.282 110.336C259.657 94.777 262.174 79.596 264.454 64.906Z" class="" fill="#48baff" fill-opacity="1"></path><path d="M338.706 116.726C343.581 131.301 341.564 135.676 334.121 150.25L300.104 123.234L338.705 116.727Z" class="" fill="#d0021b" fill-opacity="1"></path><path d="M107.697 195.242C111.047 216.843 121.867 236.692 144.504 251.605C180.062 274.297 215.71 281.325 254.791 285.621C249.271 258.791 247.485 232.114 247.936 205.941C241.538 207.356 234.08 208.046 225.48 208.527C211.966 209.284 196.08 209.077 179.889 207.961C153.537 206.145 126.921 202.489 107.697 195.242Z" class="selected" fill="#48baff" fill-opacity="1"></path><path d="M267.115 244.541C268.435 260.994 270.938 277.461 275.047 293.848L278.147 306.213L265.459 304.996C224.676 301.088 185.326 295.256 146.283 273.606C138.651 284.316 129.289 294.67 116.163 303.543L113.879 305.086L23.883 305.086L23.883 343L352.77 343C348.362 328.848 342.083 315.195 333.077 302.217C324.465 289.805 317.761 276.88 316.685 262.373C316.338 257.707 316.652 252.957 317.624 248.146C299.626 249.283 283.228 247.173 267.114 244.541Z" class="" fill="#f5a623" fill-opacity="1"></path><path d="M23.883 361L23.883 391L361.635 391C360.733 380.841 359.397 370.823 357.375 361L23.883 361Z" class="" fill="#f5a623" fill-opacity="1"></path><path d="M23.883 409L23.883 433.813C38.126 430.808 54.891 428.465 77.074 426.553C81.191 426.198 85.066 426.036 88.717 426.063C99.67 426.143 108.605 427.923 115.99 431.303C125.837 435.809 132.43 443.334 136.314 451.27C142.164 463.223 143.377 476.08 145.02 485.793L487.879 485.793C489.077 472.814 486.05 459.848 472.021 449.395C467.571 446.078 460.877 443.275 445.975 442.771C431.072 442.268 408.477 444.34 374.41 450.617L363.99 452.539L363.781 441.943C363.564 430.881 363.334 419.883 362.816 409L23.883 409Z" class="" fill="#f5a623" fill-opacity="1"></path><path d="M88.543 444.07C85.533 444.045 82.234 444.175 78.619 444.486C54.817 446.538 37.989 448.92 23.883 452.092L23.883 485.793L126.4 485.793C124.544 475.743 123.54 466.117 120.146 459.182C117.651 454.084 114.518 450.424 108.5 447.67C103.987 445.604 97.57 444.145 88.543 444.07Z" class="" fill="#f5a623" fill-opacity="1"></path></g></g></svg>