<svg xmlns="http://www.w3.org/2000/svg" viewBox="0 0 512 512" style="height: 512px; width: 512px;"><g class="" transform="translate(0,0)" style=""><g><path d="M157.918 18.367C149.001 18.303 140.706 20.329 134.375 23.418C123.135 28.902 114.279 35.329 107.262 42.322C110.542 54.091 115.21 64.819 122.406 73.648C112.261 67.993 103.794 61.554 97.373 54.16C92.705 60.925 89.303 67.983 86.762 75.06C89.997 94.239 95.118 112.001 106.045 125.408C95.568 119.568 86.885 112.892 80.393 105.191C79.468 115.791 79.784 125.082 79.861 131.639C79.904 135.277 80.127 138.805 80.518 142.239C94.499 160.485 109.745 176.114 128.586 184.291C115.566 183.889 103.696 181.991 93.199 178.314C99.717 188.416 108.662 197.587 120.159 206.178C147.107 226.318 188.389 242.353 243.008 255.152C268.615 261.153 305.52 269.326 339.158 274.535C355.978 277.14 371.992 278.995 385.17 279.498C398.348 280.001 408.912 278.758 413.13 276.99C413.344 276.9 419.172 272.951 423.545 266.871C427.918 260.791 431.753 252.557 432.505 242.764C434.011 223.177 423.958 195.211 373.551 162.074C367.501 158.097 361.961 156.23 352.711 155.9C343.492 171.495 333.677 186.593 324.414 201.043L318.982 209.516L277.4 175.786L283.191 168.783C285.07 166.508 286.929 164.215 288.766 161.906C276.21 163.501 262.359 165.256 245.465 167.238C218.084 170.452 188.565 153.079 175.75 128.002C169.343 115.463 167.691 100.1 174.527 85.783C180.477 73.323 192.207 62.166 210.479 52.855C200.294 34.389 187.309 25.125 174.352 20.967C168.842 19.199 163.268 18.406 157.918 18.367Z" class="" fill="#f5a623" fill-opacity="1"></path><path d="M392.698 45.488C392.037 45.495 391.377 45.514 390.717 45.545C387.127 45.712 383.168 46.245 378.773 47.236C362.601 50.885 355.929 59.784 351.633 71.406C350.153 75.407 349.143 79.689 348.389 84.014L357.887 80.143C378.262 69.247 401.101 61.477 423.344 58.715C420.941 56.168 418.169 53.68 414.793 51.551C409.29 48.08 402.409 45.397 392.697 45.488Z" class="" fill="#48baff" fill-opacity="1"></path><path d="M434.016 75.859C418.209 76.882 401.034 81.207 384.67 87.758C379.225 105.228 371.327 122.353 362.316 138.984C370.263 140.284 377.064 142.842 383.439 147.034C385.213 148.201 386.975 149.388 388.723 150.594L396.729 133.605L404.223 135.967C412.765 138.657 418.436 138.35 420.234 137.266C425.934 133.829 432.741 119.323 434.732 103.609C435.728 95.753 435.782 87.766 435 81.264C434.779 79.445 434.45 77.64 434.016 75.859Z" class="" fill="#f5a623" fill-opacity="1"></path><path d="M361.783 97.992L344.627 104.984C333.293 130.371 320.072 151.213 302.666 173.102L314.664 182.834C332.239 155.404 350.244 126.634 361.784 97.992Z" class="" fill="#48baff" fill-opacity="1"></path><path d="M116.02 225.31C132.038 243.754 151.788 261.395 175.355 277.403C184.491 272.302 193.659 267.539 202.588 263.142C167.468 252.812 138.528 240.551 116.02 225.31Z" class="" fill="#f5a623" fill-opacity="1"></path><path d="M229.666 270.448C207.684 280.459 182.479 293.213 159.684 307.923C168.022 310.102 175.848 313.803 182.947 318.319C195.302 326.181 202.56 337.585 204.691 349.794C206.823 362.002 204.405 374.645 199.859 387.099C197.439 393.732 194.374 400.359 190.912 406.889C242.535 381.293 290.053 352.584 336.6 323.233C335.276 312.772 334.104 302.291 333.084 291.796C299.55 286.452 263.884 278.534 238.9 272.679C235.817 271.954 232.739 271.211 229.666 270.449Z" class="" fill="#f5a623" fill-opacity="1"></path><path d="M351.504 294.48C358.351 362.679 371.179 428.3 387.514 494.48L458.707 494.48L448.437 470.37C448.134 469.796 439.994 462.83 418.129 464.427L408.909 465.099L401.205 297.449C396.06 297.761 390.494 297.715 384.485 297.485C374.429 297.102 363.245 296.014 351.504 294.48Z" class="" fill="#f5a623" fill-opacity="1"></path><path d="M143.2 323.73C139.703 323.8 136.134 324.31 132.472 325.324C117.822 329.377 100.416 342.228 81.278 371.48C67.784 392.107 51.663 421.551 45.202 446.379C41.972 458.793 41.3 469.895 43.492 477.719C45.207 483.845 48.217 488.199 54.177 491.424C56.802 484.854 60.131 477.319 64.921 470.314C71.47 460.74 81.53 451.817 95.6 449.97C105.353 448.688 114.806 448.25 123.98 448.411C129.396 448.506 134.713 448.814 139.94 449.274C141.117 447.992 142.246 446.666 143.324 445.3C158.222 426.326 175.2 402.162 182.951 380.927C186.827 370.309 188.307 360.609 186.959 352.89C185.611 345.17 182.012 339.061 173.283 333.507C163.538 327.306 153.694 323.525 143.201 323.731Z" class="" fill="#f5a623" fill-opacity="1"></path><path d="M120.54 466.395C113.15 466.379 105.63 466.805 97.946 467.815C89.936 468.867 84.616 473.403 79.78 480.475C77.322 484.07 75.205 488.228 73.302 492.49L239.249 492.787C238.507 491.564 237.542 490.453 235.86 489.225C231.21 485.827 219.447 481.527 196.216 476.961C172.642 472.328 148.912 466.903 123.7 466.428C122.65 466.408 121.596 466.397 120.54 466.395Z" class="selected" fill="#f5a623" fill-opacity="1"></path></g></g></svg>