<svg xmlns="http://www.w3.org/2000/svg" viewBox="0 0 512 512" style="height: 512px; width: 512px;"><g class="" transform="translate(0,0)" style=""><g><path d="M494 20L304.887 143.357C321.381 157.965 337.63 165.927 349.85 180.327Z" class="" fill="#bd10e0" fill-opacity="1"></path><path d="M298.346 93.594C285.766 94.03 271.756 98.578 260.299 105.364C252.659 109.887 246.184 115.334 241.995 120.506C237.805 125.679 236.205 130.338 236.347 133.174L236.63 138.904L231.555 141.58C133.713 193.16 80.945 250.727 18 310.594L18 494L184.047 494C190.192 478.576 196.771 460.102 199.133 446.465C200.861 436.488 196.35 424.658 190.903 411.221C185.459 397.785 179.053 382.515 183.273 365.798C186.763 351.971 197.648 340.046 207.369 330.142C211.819 325.608 216.079 321.679 219.444 318.697C212.886 310.12 205.379 298.382 202.934 283.803L220.684 280.825C223.364 296.801 235.887 309.358 243.484 320.065L243.161 320.295C253.701 334.929 262.053 348.69 273.881 357.841C287.239 368.178 305.365 374.231 340.407 369.331L347.065 368.399L349.847 374.523C356.807 389.845 364.219 398.413 370.862 402.946C377.505 407.481 383.492 408.406 389.554 407.736C401.679 406.396 413.844 396.762 417.314 393.472C421.444 389.552 426.971 383.996 430.634 377.348C433.981 371.272 435.707 364.661 434.114 356.604C391.434 319.042 364.522 247.854 343.858 204.004C334.613 184.384 308.072 169.512 290.891 156.054C288.464 154.654 288.216 153.472 287.651 150.9C283.436 131.733 290.839 110.643 298.625 93.602C298.529 93.604 298.439 93.592 298.345 93.596Z" class="" fill="#bfe5fe" fill-opacity="1"></path><path d="M59.352 136.55C77.215 141.475 97.127 146.215 116.758 151.365C131.561 155.248 146.018 159.3 159.164 164.131C177.078 151.953 196.571 140.008 218.236 128.361C166.616 115.061 108.308 125.213 59.352 136.551Z" class="" fill="#d0021b" fill-opacity="1"></path><path d="M88.09 162.676C65.088 166.809 42.116 172.93 20.943 179.338C39.076 183.151 59.241 186.652 79.15 190.58C90.924 192.903 102.487 195.346 113.406 198.223C122.361 190.944 131.498 183.892 140.809 177.073C131.765 174.141 122.099 171.375 112.189 168.775C104.237 166.689 96.146 164.677 88.089 162.675Z" class="" fill="#d0021b" fill-opacity="1"></path><path d="M47.44 202.94C37.565 205.036 27.712 207.522 18 210.23L18 228.27C24.729 229.288 31.453 230.337 38.172 231.416C48.677 233.116 59.019 234.914 68.906 237.041C77.742 228.856 86.793 220.719 96.174 212.644C89.534 211.084 82.654 209.62 75.666 208.241C66.346 206.403 56.856 204.675 47.439 202.941Z" class="" fill="#d0021b" fill-opacity="1"></path><path d="M304 224C312.837 224 320 231.163 320 240C320 248.837 312.837 256 304 256C295.163 256 288 248.837 288 240C288 231.163 295.163 224 304 224Z" class="" fill="#d0021b" fill-opacity="1"></path><path d="M18 246.512L18 273.092C22.16 273.287 26.28 273.517 30.342 273.802C37.782 266.602 45.22 259.418 52.729 252.264C46.933 251.153 41.122 250.127 35.296 249.186C29.536 248.261 23.77 247.37 18 246.512Z" class="selected" fill="#d0021b" fill-opacity="1"></path></g></g></svg>