<svg xmlns="http://www.w3.org/2000/svg" viewBox="0 0 512 512" style="height: 512px; width: 512px;"><g class="" transform="translate(0,0)" style=""><g><path d="M256 13.5C306.1 13.5 343.2 31.81 369.2 61.29C395.3 90.77 410.6 130.7 420.8 174.5C439 252.7 440.9 344.4 452.3 413.1C443.8 400.5 435.9 387.9 429.1 376.5C421.6 313.1 417.7 240.7 403.2 178.5C393.4 136.3 378.7 99.23 355.8 73.21C332.8 47.19 301.9 31.5 256 31.5C210.1 31.5 179.2 47.19 156.2 73.21C133.3 99.23 118.6 136.3 108.8 178.5C94.29 240.7 90.49 313.1 82.89 376.4C76.09 387.8 68.19 400.4 59.69 413.1C70.99 344.3 73.09 252.7 91.19 174.5C101.4 130.7 116.7 90.77 142.8 61.29C168.8 31.81 205.9 13.5 256 13.5Z" class="" fill="#ffffff" fill-opacity="1"></path><path d="M192 70.5L192 102.5L218 86.5L224 118.5L256 102.5L288 118.5L294 86.5L320 102.5L320 70.5L362 118.5L336 102.5L352 134.5L320 118.5L336 150.5L304 134.5L304 166.5L272 150.5L256 182.5L240 150.5L208 166.5L208 134.5L176 150.5L192 118.5L160 134.5L176 102.5L150 118.5Z" class="" fill="#ffffff" fill-opacity="1"></path><path d="M358.7 241.5C358.6 245 358.5 248.4 358.3 251.8L327.4 241.5Z" class="" fill="#ffffff" fill-opacity="1"></path><path d="M314.3 241.5L267 273L277 288L294.7 276.2C297.4 283.5 305.9 288.6 315.5 288.6C327.5 288.6 337.2 280.9 337.2 271.4C337.2 268.3 336.2 265.3 334.2 262.7L356.8 270.2C351.3 321.1 335.2 359.1 316.6 385.3C305.2 401.5 292.9 413.3 281.9 420.8C270.9 428.4 261 431.5 256 431.5C251 431.5 241.1 428.4 230.1 420.8C219.1 413.3 206.8 401.5 195.4 385.3C176.8 359.1 160.7 321.1 155.2 270.2L177.8 262.7C175.8 265.3 174.8 268.3 174.8 271.4C174.8 280.9 184.5 288.6 196.5 288.6C206.1 288.6 214.6 283.5 217.3 276.2L235 288L245 273L197.7 241.5Z" class="" fill="#f0ebe1" fill-opacity="1"></path><path d="M184.6 241.5L153.7 251.8C153.5 248.4 153.4 245 153.3 241.5Z" class="" fill="#ffffff" fill-opacity="1"></path><path d="M321.4 258.4C322.9 260.7 323.8 263.9 323.8 267.2C323.8 273.9 320.4 279.3 316.2 279.3C312 279.3 308.6 273.9 308.6 267.2L308.6 266.9L321.3 258.4Z" class="" fill="#d0021b" fill-opacity="1"></path><path d="M190.7 258.4L203.4 266.9L203.4 267.2C203.4 273.9 200 279.3 195.8 279.3C191.6 279.3 188.2 273.9 188.2 267.2C188.2 263.9 189.1 260.7 190.6 258.4Z" class="" fill="#d0021b" fill-opacity="1"></path><path d="M288 328.5L224 328.5C224 328.5 244.1 344.5 256 344.5C267.9 344.5 288 328.5 288 328.5Z" class="" fill="#ffffff" fill-opacity="1"></path><path d="M397.7 357.6C407.7 376.3 424.5 405.2 444.6 433.7C455.1 448.6 466.2 463.1 477.7 475.7C396 454 323.9 466 269.6 498.5C300.8 454.5 345.5 409.8 390.4 364.9Z" class="" fill="#ffffff" fill-opacity="1"></path><path d="M114.3 357.6L121.6 364.9C166.5 409.8 211.2 454.5 242.4 498.5C188.1 466 116 454 34.29 475.7C45.79 463.1 56.79 448.6 67.39 433.7C87.49 405.2 104.3 376.3 114.3 357.6Z" class="" fill="#ffffff" fill-opacity="1"></path><path d="M256 360.5C243.5 360.5 232.1 363.2 226.9 367.5L216 367.5L216 385.5L224.5 385.5L232 412.5L244.1 385.5L267.9 385.5L280 412.5L287.5 385.5L296 385.5L296 367.5L285.1 367.5C279.9 363.2 268.5 360.5 256 360.5Z" class="selected" fill="#ffffff" fill-opacity="1"></path></g></g></svg>