<svg xmlns="http://www.w3.org/2000/svg" viewBox="0 0 512 512" style="height: 512px; width: 512px;"><g class="" transform="translate(0,0)" style=""><g><path d="M256 19C208.897 19.059 151.63 20.514 121.223 54.078C101.951 76.129 99.11 113.418 99.082 145.628C99.069 160.878 99.972 174.947 100.922 185.658C104.342 187.783 107.687 189.656 111.09 191.166C112.996 184.953 115.278 178.976 117.979 173.313C117.37 164.103 117.07 154.875 117.082 145.645C117.086 141.483 117.192 137.248 117.391 133L128 133L128 115L118.857 115C119.425 110.203 120.136 105.51 120.998 101L144 101L144 83L125.676 83C128.126 75.985 131.138 70.086 134.777 65.922C165.602 37.302 205.611 37.165 243.006 37.018L256 76L268.994 37.018C305.417 37.184 353.788 40.072 377.223 65.922C380.862 70.086 383.875 75.985 386.324 83L368 83L368 101L391.002 101C391.864 105.51 392.575 110.203 393.142 115L384 115L384 133L394.61 133C394.807 137.248 394.914 141.483 394.918 145.645C394.929 154.875 394.63 164.102 394.021 173.312C396.722 178.976 399.004 184.952 400.911 191.166C404.313 189.656 407.659 187.783 411.078 185.658C412.028 174.947 412.931 160.878 412.918 145.628C412.89 113.418 410.049 76.129 390.778 54.078C352.365 17.425 303.361 18.985 256 19Z" class="" fill="#ffffff" fill-opacity="1"></path><path d="M164.318 147.897C132.974 165.035 121 205.545 121 252L121 300C123.884 329.924 151.052 342.574 169 360.271L169 444C169 448.935 171.352 453.45 176.75 458.36C197.182 474.296 229.979 482.83 255.96 483L256 483C284.357 479.574 314.33 477.41 335.395 458.387C340.683 453.505 343 449 343 444L343 360.271C361.205 341.771 390.537 325.573 391 300L391 252C391 205.545 379.026 165.035 347.682 147.896C335.941 141.476 322.58 141.28 307.426 144.916C287.962 150.529 272.092 158.02 256 166.063C238.812 158.137 220.932 148.986 204.574 144.916C190.875 141.62 176.344 141.459 164.318 147.896Z" class="" fill="#ffffff" fill-opacity="1"></path><path d="M57.478 182.215C59.287 204.997 66.445 238.22 76.428 264.84C82.226 280.301 89.089 293.649 95.414 301.238C98.576 305.033 101.545 307.25 102.381 306.368C103.216 305.485 103 302.792 103 300L103 252C103 237.28 104.138 222.658 106.768 208.793C97.764 205.311 90.028 200.169 83.008 195.488C74.081 189.538 66.252 184.444 57.478 182.215Z" class="" fill="#ffffff" fill-opacity="1"></path><path d="M454.521 182.215C445.748 184.445 437.919 189.537 428.992 195.488C421.972 200.168 414.236 205.311 405.232 208.793C407.862 222.658 409 237.281 409 252L409 300C409 302.792 408.784 305.485 409.62 306.367C410.455 307.25 413.424 305.033 416.586 301.238C422.911 293.648 429.774 280.301 435.572 264.84C445.555 238.22 452.713 204.998 454.522 182.215Z" class="" fill="#ffffff" fill-opacity="1"></path><path d="M176 207.27L246.363 277.636L236.043 287.956C238.517 292.391 240 296.565 240 300L144 300C144 284 160 252 192 252C193.182 252 194.46 252.194 195.797 252.523L176 232.727L150.363 258.363L137.637 245.637Z" class="" fill="#000000" fill-opacity="1"></path><path d="M192 300C200.837 300 208 292.837 208 284C208 275.163 200.837 268 192 268C183.163 268 176 275.163 176 284C176 292.837 183.163 300 192 300Z" class="" fill="#d0021b" fill-opacity="1"></path><path d="M336 207.271L374.363 245.637L361.637 258.363L336 232.727L316.203 252.523C317.54 252.193 318.818 252 320 252C352 252 368 284 368 300L272 300C272 296.565 273.483 292.391 275.957 287.957L265.637 277.637Z" class="" fill="#000000" fill-opacity="1"></path><path d="M320 300C328.837 300 336 292.837 336 284C336 275.163 328.837 268 320 268C311.163 268 304 275.163 304 284C304 292.837 311.163 300 320 300Z" class="" fill="#d0021b" fill-opacity="1"></path><path d="M116.607 336.496C88.49 347.642 57.667 361.756 22.779 378.869C62.259 394.895 92.779 416.441 112.871 440.186C127.334 457.278 136.451 475.798 139.119 494L209.73 494C193.616 489.187 176.292 482.069 164.639 471.676C156.82 464.566 151 455.065 151 444L151 367.998C138.18 356.463 126.326 348.696 116.607 336.496Z" class="" fill="#000000" fill-opacity="1"></path><path d="M395.393 336.496C385.85 348.775 372.126 358.054 361 367.998L361 444C361 455 355.317 464.495 347.605 471.613C333.582 483.188 318.659 489.438 302.655 494L372.881 494C375.548 475.798 384.666 457.278 399.129 440.186C419.221 416.441 449.742 394.896 489.221 378.869C454.332 361.755 423.511 347.642 395.393 336.496Z" class="" fill="#000000" fill-opacity="1"></path><path d="M229.609 340.963C237.222 345.663 246.15 354.492 256 355C266.283 352.313 273.928 347.476 282.39 340.963L293.61 355.037C282.997 362.708 267.95 372.778 256 373C241.17 371.456 229.774 363.941 218.39 355.037Z" class="" fill="#000000" fill-opacity="1"></path><path d="M198.316 389.588L211.93 403L300.363 403L313.613 389.658L326.387 402.342L307.855 421L301 421L288 460L275 421L237 421L224 460L211 421L204.553 421L185.683 402.412Z" class="selected" fill="#000000" fill-opacity="1"></path></g></g></svg>