<svg xmlns="http://www.w3.org/2000/svg" viewBox="0 0 512 512" style="height: 512px; width: 512px;"><g class="" transform="translate(0,0)" style=""><g><path d="M384.932 45.57C381.646 45.814 377.052 47.973 369.838 60.116C364.782 76.073 369.516 85.202 374.898 98.612L377.205 104.356L321.245 156.226C325.621 164.82 328.652 174.452 330.025 184.666L410.279 104.452C406.165 93.799 401.607 85.927 398.132 77.284C394.869 69.168 393.372 59.789 395.337 48.964C390.99 46.898 387.251 45.4 384.931 45.571Z" class="" fill="#417505" fill-opacity="1"></path><path d="M265.328 136.72C240.236 136.825 218.194 162.862 218.371 197.134C218.549 231.404 240.858 257.254 265.951 257.147C291.043 257.042 313.084 231.007 312.907 196.735C312.73 162.463 290.422 136.615 265.329 136.72Z" class="selected" fill="#417505" fill-opacity="1"></path><path d="M455.381 221.016C449.411 220.931 443.556 221.876 438.435 223.886C428.31 239.086 430.191 243.453 427.368 260.304L426.658 264.554L422.9 266.664C401.226 278.836 380.452 289.206 359.97 305.979L356.338 308.953L351.822 307.678C351.822 307.678 339.029 304.065 326.018 300.255C319.512 298.35 312.955 296.397 307.85 294.8C305.297 294 303.12 293.295 301.4 292.694C300.54 292.394 299.81 292.127 299.082 291.827C298.719 291.677 298.362 291.525 297.885 291.283C297.415 291.045 296.973 291.065 295.422 289.551L295.326 289.651L282.404 272.627C277.209 274.24 271.734 275.12 266.044 275.144C244.784 275.234 226.387 263.44 214.514 245.414C157.628 282.471 97.774 324.8 64.201 368.694L72.484 393.252L127.509 377.426L148.222 424.143C190.99 398.068 232.622 372.401 265.055 349.509C258.585 347.509 252.731 345.149 247.695 342.346L256.449 326.62C266.339 332.125 285.792 336.95 307.653 339.327C328.588 341.604 351.865 341.873 372.407 340.167C396.71 319.271 426.435 293.762 445.245 274.17C446.505 267.162 448.785 260.48 453.14 254.402L453.58 253.785L454.118 253.252C457.85 249.552 462.775 246.948 467.855 246.98C472.935 247.012 476.873 249.287 479.823 251.486C482.51 253.488 484.737 255.606 486.816 257.576L495.493 244.442C491.998 235.484 483.708 228.346 473.043 224.322C467.447 222.212 461.356 221.097 455.383 221.012Z" class="" fill="#417505" fill-opacity="1"></path><path d="M36.79 381.1L34.23 398.92C33.675 398.84 33.422 398.794 33.145 398.747C33.257 398.777 33.378 398.801 33.465 398.839C34.082 399.104 35.073 399.559 36.303 400.142C38.763 401.31 42.208 403.006 46.253 405.032C50.219 407.019 54.909 409.407 59.773 411.892L51.57 387.58C48.684 386.144 46.052 384.847 44.024 383.884C42.686 383.249 41.566 382.732 40.606 382.317C39.646 381.902 40.279 381.602 36.789 381.1Z" class="" fill="#ffffff" fill-opacity="1"></path><path d="M105.164 402.585L64.464 414.292L64.49 414.306L49.395 427.54C44.452 424.985 39.705 422.544 35.697 420.516C32.341 418.818 29.471 417.391 27.27 416.336C26.17 415.806 25.244 415.374 24.43 415.018C23.615 414.662 24.353 414.403 20.893 413.893L18.27 431.7C17.767 431.626 17.555 431.586 17.274 431.538C17.749 431.748 18.514 432.098 19.484 432.563C21.471 433.516 24.274 434.913 27.57 436.579C29.725 437.669 32.334 439.012 34.842 440.299L20.78 452.628L32.647 466.163L52.017 449.181C68.722 457.885 84.917 466.443 84.917 466.443L93.33 450.531C93.33 450.531 80.638 443.838 66.528 436.461L81.686 423.171C99.886 432.586 116.576 441.308 116.576 441.308L124.928 425.361C124.928 425.361 111.566 418.388 96.218 410.431Z" class="" fill="#ffffff" fill-opacity="1"></path><path d="M17.274 431.538L17.221 431.513C16.826 431.34 15.814 431.287 17.275 431.538Z" class="" fill="#ffffff" fill-opacity="1"></path></g></g></svg>