<svg xmlns="http://www.w3.org/2000/svg" viewBox="0 0 512 512" style="height: 512px; width: 512px;"><g class="" transform="translate(0,0)" style=""><g><path d="M105.4 26.28C122.1 96.08 82.98 121 27 132.6C97.72 156.9 63.69 181 48.99 205.2C115 200.1 136.5 231 136.4 279.5C172.9 259.4 188 217.2 283.5 257.9C260.1 214.8 251.6 182.6 303.8 139.4C264.1 125.2 226.8 109.2 245.7 58.23C189.4 96.08 146.8 63.75 105.4 26.28Z" class="" fill="#d0021b" fill-opacity="1"></path><path d="M172.3 94.17C206.657 94.187 234.5 122.043 234.5 156.4C234.483 190.745 206.645 218.583 172.3 218.6C137.955 218.583 110.117 190.745 110.1 156.4C110.1 122.043 137.943 94.187 172.3 94.17Z" class="" fill="#ffffff" fill-opacity="1"></path><path d="M318.9 218.2C336.2 299.5 293.9 316.2 229.9 309.4C260.8 341.3 280.1 377.4 246 432.5C291.3 421.3 334.5 418.9 359.9 482.3C382.4 436.2 424.7 429.9 476.6 443.6C458.7 415.9 438.6 388.2 493.5 360.8C456.5 335.3 419.2 310.1 444.1 236.3C398.8 287.3 357.4 276.4 318.9 218.2Z" class="" fill="#7c1e28" fill-opacity="1"></path><path d="M366.3 294.9C400.645 294.917 428.483 322.755 428.5 357.1C428.483 391.445 400.645 419.283 366.3 419.3C331.955 419.283 304.117 391.445 304.1 357.1C304.117 322.755 331.955 294.917 366.3 294.9Z" class="selected" fill="#ffffff" fill-opacity="1"></path></g></g></svg>