<svg xmlns="http://www.w3.org/2000/svg" viewBox="0 0 512 512" style="height: 512px; width: 512px;"><g class="" transform="translate(0,0)" style=""><g><path d="M96.375 20.094L127.188 60.844L257.468 191.124L375.313 73.282L415.533 20.096L255.939 128.19L96.375 20.094Z" class="" fill="#ff0000" fill-opacity="1"></path><path d="M452.22 59.53L338.656 136.375L264.094 210.938L257.5 217.563L250.875 210.938L176.937 137L62.594 59.625L143.438 179.095L213.094 248.75L219.688 255.344L213.094 261.969L138.281 336.779L61.563 450.19L182.313 368.502L250.97 299.846L257.563 293.221L264.188 299.845L333.75 369.407L453.28 450.313L375.906 335.97L301.969 262.03L295.374 255.438L301.968 248.813L370.528 180.25L452.218 59.53Z" class="selected" fill="#5a0c0c" fill-opacity="1"></path><path d="M22.22 94.22L130.344 253.813L22.22 413.375L75.688 372.937L193.25 255.375L62.812 124.937L22.22 94.22Z" class="" fill="#ff001f" fill-opacity="1"></path><path d="M492.844 97.375L439.624 137.595L321.812 255.438L452.282 385.906L492.812 416.562L384.72 256.97L492.843 97.374Z" class="" fill="#fa0000" fill-opacity="1"></path><path d="M257.564 319.655L139.874 437.345L99.531 490.687L259.126 382.594L418.689 490.688L388 450.094L257.562 319.656Z" class="" fill="#ff001e" fill-opacity="1"></path></g></g></svg>