<svg xmlns="http://www.w3.org/2000/svg" viewBox="0 0 512 512" style="height: 512px; width: 512px;"><defs><linearGradient x1="0" x2="1" y1="1" y2="0" id="skoll-gladius-gradient-3"><stop offset="0%" stop-color="#c9c9c9" stop-opacity="1"></stop><stop offset="100%" stop-color="#dddcdc" stop-opacity="1"></stop></linearGradient></defs><g class="" transform="translate(0,0)" style=""><g><path d="M124.812 388.907C129.647 393.668 135.246 397.585 141.376 400.495L107.28 435.07C102.251 422.123 91.938 411.935 78.93 407.064L113.09 372.488C116.06 378.573 120.022 384.122 124.812 388.908Z" class="selected" fill="#8b572a" fill-opacity="1"></path><path d="M334.41 112.467C301.656 145.607 276.597 191.594 231.402 237.32C222.272 246.565 191.11 274.675 173.099 290.875L222.322 339.515C238.302 321.275 266.049 289.771 275.18 280.537C320.334 234.811 366.008 209.147 398.75 176.06C452.683 121.485 481 28.492 481 28.492C481 28.492 388.33 57.892 334.41 112.468Z" class="" fill="url(#skoll-gladius-gradient-3)"></path><path d="M83.656 430.594C66.725 413.864 38.033 421.735 32.009 444.763C25.986 467.79 47.149 488.703 70.103 482.406C75.337 480.97 80.101 478.182 83.916 474.321C95.977 462.198 95.86 442.573 83.656 430.594Z" class="" fill="#8b572a" fill-opacity="1"></path><path d="M174.786 389.991C185.946 389.991 195.608 387.181 199.283 383.431L220.168 362.328L150.288 293.281L129.465 314.416C121.501 322.484 118.232 357.476 137.315 376.321C147.435 386.347 162.105 389.981 174.785 389.981Z" class="" fill="#8b572a" fill-opacity="1"></path></g></g></svg>