<svg xmlns="http://www.w3.org/2000/svg" viewBox="0 0 512 512" style="height: 512px; width: 512px;"><g class="" transform="translate(0,0)" style=""><g><path d="M477.9 25.37C404.7 80.98 323.3 156.7 269.9 221.6C289.7 232.2 309.4 243.7 324.6 259.4C335.5 248.7 346 237.5 356.7 226.3L354.4 207.4L370.7 212C390.5 192.3 412 173.2 439.6 157.5C443.1 131.4 455.8 102.2 469.1 73.1C472.3 65.99 475.5 58.92 478.7 51.93C464.6 68.16 449.1 86.22 433 105C391.3 153.7 328.7 201.4 328.7 201.4L326 202C326 202 377.5 142.1 419.3 93.3C440.2 68.9 461.3 44.34 477.7 25.56C477.8 25.46 477.8 25.44 477.9 25.37Z" class="" fill="#ffe0af" fill-opacity="1"></path><path d="M243.2 227.7C237 232.2 231.5 236.7 228.5 241.5C223.5 253.1 224.7 258.4 227.3 268.3C231.2 270.2 235.1 272.2 238.9 274.1C256.3 273 279.3 264.3 292 256C277.5 246 260.5 237 243.2 227.7Z" class="" fill="#8b572a" fill-opacity="1"></path><path d="M306.8 267.7C296.8 276 282.7 282.9 267.7 287.2C278.5 291.7 289.4 295.8 300.4 299L319.1 281.1C315.6 276.3 311.4 271.9 306.8 267.7Z" class="" fill="#8b572a" fill-opacity="1"></path><path d="M215.7 282.6C210.1 284.5 206.8 287.9 206.2 292.8C225.6 309 248.1 318.8 272.4 325.8C279.5 325.2 282.9 319.8 285.5 313.2C261.3 305.2 238.3 294.1 215.7 282.6Z" class="" fill="#8b572a" fill-opacity="1"></path><path d="M193.9 305.9C189.7 305.7 189.5 308.9 188.6 311.6C195.5 335.4 206.8 356.1 220 375.9C240.1 368.2 248.5 354 257.5 340C234.9 332.7 213.2 322.3 193.9 305.9Z" class="" fill="#ffe0af" fill-opacity="1"></path><path d="M174.5 326.6C163.3 330.7 157.7 338.6 154.4 348.1C162.7 366.2 180 381.5 194.6 400.1C203.3 400.9 204.9 394.4 206.8 388.4C194.1 369.7 182.5 349.7 174.5 326.6Z" class="selected" fill="#8b572a" fill-opacity="1"></path><path d="M141.2 362.2C133.5 365.9 128.1 371.4 125.4 379.1C128.6 397.8 134.4 404.9 141.4 410.4C147.9 415.5 157.3 419 166.6 426.9C175.9 426.2 180.1 420.8 181.5 412.6C169.5 397.3 152.1 382.4 141.2 362.2Z" class="" fill="#ffe0af" fill-opacity="1"></path><path d="M40.47 393.4C38.34 394.3 36.76 395.9 35.38 399.2C34 402.4 33.19 407.1 33.3 412.2C33.51 422 37.39 433 41.59 438.2L41.85 438.2C43.39 438.1 46.33 437.5 49.66 436.5C56.29 434.5 64.06 431.1 72.41 430.4C82.15 429.6 88.32 436.4 91.8 441.2C95.28 446 97.11 450.8 97.11 450.8C98.86 456.1 96.73 462.4 96.71 466.9C96.71 472.9 99.06 478.6 98.43 478C104.5 483.4 115.1 486.7 125.9 486.6C136.6 486.5 147.1 483 153.1 477.5C156.7 463.1 155.8 452.4 153.2 439.7L153.4 439.5C146.8 434.5 138.9 431.2 130.3 424.5C122.2 418.2 114.9 408.6 110.3 393.1C100 394.7 88.67 393.2 79.65 392.6C66.97 393.1 53.15 388.5 40.47 393.4Z" class="" fill="#ffe0af" fill-opacity="1"></path></g></g></svg>