<svg xmlns="http://www.w3.org/2000/svg" viewBox="0 0 512 512" style="height: 512px; width: 512px;"><g class="" transform="translate(0,0)" style=""><g><path d="M282.2 13.97C278 29.18 273.5 50.86 269.2 70.56C266.2 84.03 263.2 96.65 259.8 106.5C258 111.4 256.3 115.6 253.9 119.3C251.6 123 247.9 127.4 241.3 127.5C233.6 127.6 227.9 122.9 223.6 117.9C219.3 112.9 215.8 106.8 212.6 100.2C208.8 92.49 205.5 84.37 202.5 76.66C191.3 94.12 186.4 110.4 185.1 127.1C183.4 148 187.4 169.9 192.7 194.9L196.2 211.5L180.5 205.1C152.6 193.8 132.3 173.5 115.9 153C123.8 182.1 144.4 215.6 168.6 240.8L178 250.5L165.3 255.4C147 262.5 123.1 259.7 100.5 249.8C104.4 275 116.8 301.1 139.1 324.6C125.4 358.3 118.8 392.2 127.8 421.3C135.8 446.9 156.5 466.2 180.6 479C204.8 491.9 232.8 498.5 257.8 498C282 497.4 308.5 489.7 331.2 476.3C353.9 462.8 373 443.3 380.1 418.4C389.7 384.6 378.6 344.6 360.3 306.1C373.3 289.5 380.2 269.7 380.9 245.8C379 247.2 377 248.3 374.8 249.3C366.3 253.3 355.2 252.9 347.2 246.4C336.7 238 334.4 224 336.8 210.7C339.2 197.3 345.8 183.1 354.7 168.8C369.3 145.4 390.1 122.2 411.5 106.1C397.7 101.2 383.1 98.47 369.7 99.69C351.4 101.4 335 109.4 322 130.6L305.4 157.5L305.3 125.9C305.2 94.7 305.1 71.68 301 53.02C297.8 38.54 292.4 26.47 282.2 13.97Z" class="" fill="#7cc1b2" fill-opacity="1"></path><path d="M253.7 177.1C265.4 191.2 290.7 222.8 314.5 260.7C346.7 312 373.9 374.3 362.7 413.4C357.3 432.5 341.9 449 322 460.8C302.1 472.6 278 479.5 257.4 480C235.9 480.4 210.3 474.4 189.1 463.1C167.8 451.8 151.1 435.5 145 415.9C132.8 376.9 159.9 314 192.2 262C216.2 223.6 241.9 191.4 253.7 177.1Z" class="" fill="#ffffff" fill-opacity="1"></path><path d="M282.9 321.1C253.401 321.075 229.481 348.399 229.5 382.1C229.481 415.801 253.401 443.125 282.9 443.1C312.399 443.125 336.319 415.801 336.3 382.1C336.319 348.399 312.399 321.075 282.9 321.1Z" class="" fill="#68c8b3" fill-opacity="1"></path><path d="M286.7 354.5C304.2 354.5 318.3 369.3 318.3 386.9C318.3 404.5 304.2 419.3 286.7 419.3C269.2 419.3 255.1 404.5 255.1 386.9C255.1 369.3 269.2 354.5 286.7 354.5Z" class="" fill="#000000" fill-opacity="1"></path><path d="M286.7 372.5C279.3 372.5 273.1 378.6 273.1 386.9C273.1 395.2 279.3 401.3 286.7 401.3C294.1 401.3 300.3 395.2 300.3 386.9C300.3 378.6 294.1 372.5 286.7 372.5Z" class="selected" fill="#000000" fill-opacity="1"></path></g></g></svg>