<svg xmlns="http://www.w3.org/2000/svg" viewBox="0 0 512 512" style="height: 512px; width: 512px;"><g class="" transform="translate(0,0)" style=""><g><path d="M16.508 18.453L16.506 168.361L77.766 218.028L137.523 342.571L128.035 231.833C88.835 182.608 56.58 126.518 67.12 58.338L85.59 61.193C78.278 108.49 93.99 149.665 119.03 187.863L196.775 230.957L280.643 414.757C351.097 448.7 421.553 473.387 492.008 487.18C444.336 465.546 398.178 436.267 360.676 396.463L298.226 385.403L301.482 367.003L314.542 370.253L431.962 388.408C379.154 368.868 330.912 344.766 299.952 303.378C289.708 278.925 282.106 252.013 277.792 222.371C254.436 217.483 231.392 209.138 208.822 196.881L217.742 180.458C243.975 194.706 270.596 203.206 297.742 206.884L344.492 208.917L490.722 359.727C472.602 307.65 439.179 238.667 402.532 182.057C371.564 168.551 341.358 166.617 310.646 176.47L304.936 158.672C319.13 154.119 333.406 151.842 347.682 151.746C349.722 151.732 351.76 151.763 353.799 151.838C380.696 152.825 407.545 161.518 433.772 177.258C449.987 185.422 466.622 194.988 484.06 205.783C450.07 161.483 418.322 121.803 366.852 106.189L366.848 106.182L342.908 121.518C306.648 139.004 254.72 139.683 207.644 112.873C186.084 120.197 164.684 124.883 143.478 126.4L142.144 107.76C168.492 105.874 195.742 98.518 223.721 86.68C205.606 80.035 186.911 70.87 169.626 60.598C146.713 46.981 126.622 32.058 114.081 18.451Z" class="" fill="#000000" fill-opacity="1"></path><path d="M141.354 370.49L139.954 441.846C178.437 479.06 226.702 487.853 279.864 496.41C215.532 459.667 170.027 424.495 141.354 370.49Z" class="selected" fill="#4a4a4a" fill-opacity="1"></path></g></g></svg>