<svg xmlns="http://www.w3.org/2000/svg" viewBox="0 0 512 512" style="height: 512px; width: 512px;"><g class="" transform="translate(0,0)" style=""><g><path d="M183.625 18.625C198.495 48.625 232.427 80.479 278.25 88.438C277.33 88.512 276.406 88.595 275.47 88.688C154.666 100.6 228.187 272.495 291.937 213.594C364.513 270.937 413.201 98.918 300.687 88.438C301.583 86.976 302.523 85.591 303.531 84.281C313.381 71.487 329.079 65.035 346.407 65.188C381.063 65.496 420.095 91.775 420.095 147.282C420.095 172.907 413.278 191.392 401.72 206.127C390.16 220.863 373.412 231.967 352.844 240.815C311.707 258.51 256.048 266.595 203.406 279.377C196.6 281.03 190.046 282.837 183.719 284.783C185.244 279.37 185.519 273.433 184.093 266.941C180.367 249.971 167.037 238.284 148.313 238.221C142.07 238.201 135.223 239.489 127.937 242.284C163.313 246.358 182.685 279.108 141.499 301.504C102.609 321.014 77.075 347.424 64.436 377.192C48.583 414.532 53.69 456.16 75.812 493.16L223.25 493.16C183.688 458.63 173.828 415.154 193.187 373.535C227.797 316.795 306.563 308.179 314.094 377.818C318.461 417.914 281.16 420.746 258.031 395.943C266.343 426.027 292.251 433.226 313.407 423.786C332.86 415.106 336.187 390.876 333.877 372.444C328.034 325.844 298.207 303.446 264.47 304.194C261.916 304.25 259.34 304.466 256.75 304.787C274.875 292.62 296.35 281.414 321.156 271.57C334.814 267.674 347.95 263.253 360.219 257.976C382.596 248.348 402.289 235.732 416.436 217.693C416.486 217.63 416.543 217.57 416.593 217.506L416.718 217.569C449.698 181.057 477.271 208.567 471.968 244.349C490.308 219.094 481.602 197.659 461.028 187.006C451.428 182.033 442.328 181.219 433.904 183.286C437.064 172.43 438.779 160.451 438.779 147.286C438.779 82.764 390.929 46.899 346.593 46.506C324.425 46.309 302.588 54.859 288.718 72.881C288.396 73.298 288.091 73.736 287.778 74.161C271.236 32.567 223.242 18.451 183.623 18.631Z" class="selected" fill="#58dabd" fill-opacity="1"></path></g></g></svg>