<svg xmlns="http://www.w3.org/2000/svg" viewBox="0 0 512 512" style="height: 512px; width: 512px;"><g class="" transform="translate(0,0)" style=""><g><path d="M202.53 22.063C188.086 21.915 175.74 29.986 165.5 43.406C109.21 42.28 67.9 109.003 68.344 204.626L131.5 144.719C129.192 162.279 128.03 180.179 128.03 197.312C128.03 202.067 128.14 206.802 128.375 211.468C105.99 212.81 90.225 233.938 89.845 268.248C89.322 315.316 117.935 369.368 153.75 388.968C161.84 393.395 169.6 395.678 176.78 396.028C178.803 421.126 182.025 453.301 172.72 473.278C161.49 497.388 200.033 500.228 204.156 477.436C216.933 498.944 249.596 479.046 231.656 461.779C216.236 446.939 206.931 414.319 198.876 389.812C204.526 385.84 209.226 380.076 212.719 372.687C224.512 378.415 237.072 381.53 250.124 381.53C263.166 381.53 275.744 378.438 287.53 372.72C291.022 380.096 295.73 385.846 301.375 389.812C293.319 414.322 284.015 446.94 268.595 461.782C250.653 479.047 283.317 498.946 296.095 477.438C300.217 500.228 338.76 497.388 327.531 473.281C318.226 453.304 321.448 421.129 323.471 396.031C330.651 395.681 338.411 393.398 346.501 388.971C382.316 369.371 410.929 315.319 410.407 268.251C410.027 233.925 394.277 212.795 371.877 211.471C372.111 206.805 372.22 202.069 372.22 197.314C372.22 180.182 371.062 162.278 368.75 144.72L431.906 204.625C432.349 108.985 391.026 42.255 334.719 43.405C314.604 17.082 286.394 11.511 250.124 47.781C232.302 29.961 216.446 22.206 202.53 22.063Z" class="selected" fill="#9e630b" fill-opacity="1"></path></g></g></svg>