<svg xmlns="http://www.w3.org/2000/svg" viewBox="0 0 512 512" style="height: 512px; width: 512px;"><g class="" transform="translate(0,0)" style=""><g><path d="M18 27.7L18 133.7C45.94 142.6 65.63 153.5 86.45 167C85.23 151.3 86.59 136.4 90.52 122.2C95.87 102.9 105.9 85.27 120 69.21C86.02 55.33 46.92 49.79 18 27.7Z" class="" fill="#563e0a" fill-opacity="1"></path><path d="M137.5 76.67C122.8 92.15 112.9 108.9 107.9 127C103.8 141.8 102.8 157.7 105.4 174.9C156.9 185.8 193.5 206.1 224.8 225.2C215.3 197.5 218 171.1 226.7 151.4C232.7 140.2 238.9 130.4 248 123.7C207.1 113.8 169.1 99.69 137.5 76.67Z" class="" fill="#333308" fill-opacity="1"></path><path d="M290.4 142.6C300.9 152.4 307.3 169.6 307.3 188.2C307.3 217.8 291.3 241.9 271.5 241.9C258.5 241.9 246.5 231.3 240.2 214.3C241.5 218.7 243.1 223.2 245.1 227.7C255.6 251.2 272.3 259 294.3 263.3C313.5 267.1 336.1 267 358.2 270.8C363.7 233.7 353.9 203.7 337.1 180.9C324.4 163.6 307.4 150.7 290.4 142.6Z" class="" fill="#cb972a" fill-opacity="1"></path><path d="M277.2 277.5C288.8 353.8 284.2 407.7 283.3 486.6C294.6 492.5 302.2 489.3 310 486.6C306.8 458.1 313.1 429.7 315.7 401.2C318.9 429.4 325.8 456.5 321.4 486.6C354.7 496.2 384.8 492.1 385.5 486.6C383.6 412.9 366.9 362.1 368.3 291.4C361.6 289.8 354.2 288.4 348.3 287.6C348.4 300.9 348.3 314.1 344.3 328C338.2 314.5 337.4 300.4 336.8 286.3C327.8 285.4 318.5 284.8 309.2 283.7C311.9 290.2 313.9 320.5 314.6 326.3C317.7 351.5 308.2 380.4 308.2 380.4C303.4 374 295 313.3 302.8 282.9C293.9 281.8 285 280.1 277.2 277.5Z" class="" fill="#8d5c13" fill-opacity="1"></path><path d="M388.7 310C388.7 310 388.2 337.8 394 350C396.8 355.8 407 362.6 412.6 358.6C419.3 353.8 414.5 341 410.2 334C404.6 324.9 388.7 310 388.7 310Z" class="" fill="#8d5c13" fill-opacity="1"></path><path d="M338.1 347.6C338.1 347.6 350.2 385 352 404.5C353.5 421.2 349.8 454.7 349.8 454.7C349.8 454.7 343.2 428.4 341.1 415.2C337.5 392.5 338.1 347.6 338.1 347.6Z" class="" fill="#8d5c13" fill-opacity="1"></path><path d="M272.1 428.2C272.1 428.2 263.1 438.6 259.4 447.6C256.6 454.5 255.4 466.2 260.4 469.4C265 472.3 271.6 463.8 273.2 458.2C276.7 446.4 272.1 428.2 272.1 428.2Z" class="selected" fill="#8d5c13" fill-opacity="1"></path></g></g></svg>