<svg xmlns="http://www.w3.org/2000/svg" viewBox="0 0 512 512" style="height: 512px; width: 512px;"><g class="" transform="translate(0,0)" style=""><g><path d="M201.2 18.02C193.7 36.45 186.3 57.99 164.8 71.61L161 74.01L156.8 72.41C149.3 69.56 143.1 65.1 137.9 59.99C139.1 92.5 141.2 125.1 142.9 157.8C167.2 140.8 187.7 130.2 211.9 121.1L245.5 163.5C241 165.1 236.1 166.7 231.7 168.4L225.4 239L204.9 260.8L244.4 283.4L296.3 262L273.3 242.6L264.4 169.3C259.4 167.4 254.2 165.7 249 163.8C260.2 149.7 271.3 135.5 282.6 121.4C306 130.3 329.9 142.3 347.6 155.1C346.3 119.5 347 83.13 349.8 45.89C342.1 51.21 334.3 56.27 326.7 60.45C313.5 67.6 301.8 73.14 289.7 71.43C275.5 69.4 266.2 58.16 258 46.79C250.8 36.84 244.3 26.04 238.5 18.02Z" class="" fill="#d9945a" fill-opacity="1"></path><path d="M18.51 19.11C20.6 23.91 23.15 29.49 26.35 35.54C34.2 50.41 45.91 65.87 53.89 69.42C58.61 71.52 60.55 71.03 64.64 69.05C68.73 67.07 74.03 62.8 80.79 58.38C90.01 52.35 102.8 47.02 119.4 48.75C119.2 43.22 119.1 37.69 119 32.14L118.8 19.11Z" class="" fill="#a6b9e5" fill-opacity="1"></path><path d="M130.8 19.11L135.7 27.38C141.9 37.77 149.6 48.21 159 53.56C169.7 45.09 175.4 32.91 181.1 19.11Z" class="" fill="#a6b9e5" fill-opacity="1"></path><path d="M261.1 19.11C265 25 268.8 30.95 272.6 36.23C280 46.43 287.5 52.92 292.3 53.61C295.1 54.02 306.2 51.08 318.1 44.64C329.9 38.19 343.2 29.05 354.5 20.1L355.8 19.11Z" class="" fill="#a6b9e5" fill-opacity="1"></path><path d="M369.9 19.11C368.5 34.62 367.2 51.19 366.4 64.75C382 67.95 398.3 77.35 413.3 74.83C424.4 72.75 435.4 62.11 448.3 52.12C457 43.95 467.6 47.84 477.3 45.45C486.5 40.97 490.2 27.73 493.1 19.11Z" class="" fill="#a6b9e5" fill-opacity="1"></path><path d="M206 142.7C177.6 154.1 154.9 169.4 136 187.4L143.4 201.3C163.7 184.3 186.6 167.6 216 155.3Z" class="selected" fill="#f8e71c" fill-opacity="1"></path><path d="M288.5 143L278.5 155.6C307.9 167.9 330.8 184.6 351.1 201.6L358.5 187.7C339.6 169.7 316.9 154.4 288.5 143Z" class="" fill="#f8e71c" fill-opacity="1"></path><path d="M210.2 206.7L158.6 226.4C150.1 217.4 152.9 216.7 145.2 223.2C145.5 251.8 144.9 280.5 142.3 309.6C153.7 305.9 165.9 301.9 177.9 297.7C190.4 293.4 201.9 289.4 212.3 285.7L176.1 265L208 231.2Z" class="" fill="#d9945a" fill-opacity="1"></path><path d="M287.2 208.1L290.3 233.4L330.5 267.4L282 287.4C308.2 297.1 339.5 303.9 369.1 310.3C362.3 283 357.1 255.3 353.5 227.1C350.2 224.3 346.6 221.1 343.5 218.6L335.9 226.7Z" class="" fill="#d9945a" fill-opacity="1"></path><path d="M258.5 297.1L243.2 303.4L232.9 297.5C220.9 301.9 203.6 308 183.8 314.8C167.1 320.5 150.3 326 135.5 330.6C149 333.2 163.1 335.2 176.8 336.1C203.4 337.9 228.1 334.8 243.1 324.9L248.1 321.6L253.1 324.9C270.6 336.5 298.1 339 326.4 336.1C340.8 334.7 355.2 331.9 368.6 328.7C332.1 321 291.4 312.7 258.5 297.1Z" class="" fill="#a6b9e5" fill-opacity="1"></path><path d="M378.9 344.8C346.3 352.2 313.7 358.2 282.5 353.7C299.6 377.9 300.2 419.6 296.7 447.8L296 447.8L354.3 494C353.4 489.6 352.7 485.1 352.4 480.7C351.5 465.6 354.7 449.9 364.7 437.1L369.7 430.7L376.5 434.9C419 461.2 452.3 476.3 492.9 479.8C452.6 447.6 423.3 413.9 388.1 370.7C384 362.6 381.4 352.8 378.9 344.8Z" class="" fill="#d9945a" fill-opacity="1"></path><path d="M137.5 349.2C137.1 352 137.1 354.7 135.5 357C102.3 411.5 75.97 427.3 21.97 462.7C56.75 466.7 92.95 460.8 114.3 444.6L128 434.2L128.7 451.4C128.3 476.5 137.8 479.3 150.8 494.8C164.3 485.7 175.4 481.8 181.9 477.7C194 466.3 195.6 457.3 197.1 445.4C192.3 417.6 191.9 377.5 207.8 353.9C197.4 354.9 186.5 354.8 175.6 354.1C162.9 353.2 149.9 351.5 137.5 349.2Z" class="" fill="#d9945a" fill-opacity="1"></path></g></g></svg>