<svg xmlns="http://www.w3.org/2000/svg" viewBox="0 0 512 512" style="height: 512px; width: 512px;"><g class="" transform="translate(0,0)" style=""><g><path d="M290.78 9.563L271.28 82.093L341.313 108.906L302.031 149.719C286.511 158.175 274.928 157.939 264.721 151.843C264.707 151.835 264.701 151.819 264.688 151.813L259.595 140.749L301.439 107.249L252.064 124.469L222.189 59.843L236.595 28.468L204.939 51.028L204.939 51L113.595 30.906L204.345 68.75L215.875 93.688L153.625 106.938L120.315 65.312L136.095 110.656L109.939 116.219L50.25 77.843L76.594 107.905L36.688 139.843L88.718 121.718L102.625 137.561L183.188 120.623L179.968 164.373L200.75 116.935L224.406 111.967L247.812 162.591C249.692 172.544 250.528 181.717 250.094 189.716L204.906 172.059L246.094 207.621C239.996 220.564 226.824 225.861 204.75 219.215L129.406 169.245L101.436 187.775L85.031 150.432L88.407 196.432L78.877 202.745L13.72 153.401L75.22 228.339L129.406 192.401C140.306 199.891 151.273 207.306 162.25 214.681L150.125 256.401L101.375 276.621L165.345 272.839L178.938 225.809C184.634 229.596 190.318 233.389 196.031 237.151C245.568 313.031 253.104 426.471 198.001 413.839C207.087 452.472 173.728 481.744 143.157 494.901L171.187 494.901L171.157 494.839C196.374 486.883 211.374 474.067 227.063 449.026C227.176 466.39 219.663 482.372 206.188 494.902L272.188 494.902C254.502 478.27 244.828 451.112 257.126 406.372C259.58 447.368 271.896 478.496 310.282 494.872L310.282 494.902L336.252 494.902C267.146 457.208 251.312 383.484 286.158 312.372L322.438 268.902L384.596 286.152L346.408 261.872L364.564 216.152L332.408 252.965L318.188 243.901L304.346 260.431C297.069 252.588 294.711 238.956 296.566 222.026C298.64 203.072 305.961 181.596 313.689 165.776L329.627 149.371L371.157 175.341L384.565 232.621L464.315 254.559L401 219.22L390.562 173.438L417.532 160.844L461.187 209L434.467 152.937L444.28 148.344L494.75 145.469L460.094 132.469L479.531 80.279L439.157 130.124L379.751 157.844L343.471 135.124L367.595 110.28L410.032 76.312L357.722 94.532L352.314 92.438L392.75 13.31L334.687 85.623L290.781 68.685L290.781 9.563Z" class="selected" fill="#4a4a4a" fill-opacity="1"></path><path d="M277.28 234.25C277.534 249.815 281.508 264.606 292.28 274.844L280.094 289.406C270.641 275.981 271.047 256.326 277.281 234.25Z" class="" fill="#9b9b9b" fill-opacity="1"></path><path d="M223.5 248.53C250.19 266.218 263.387 308.76 247.25 337.125C243.544 312.239 234.512 278.243 221.562 251.937L223.5 248.531Z" class="" fill="#9b9b9b" fill-opacity="1"></path></g></g></svg>