<svg xmlns="http://www.w3.org/2000/svg" viewBox="0 0 512 512" style="height: 512px; width: 512px;"><g class="" transform="translate(0,0)" style=""><g><path d="M468.958 108.958C441.451 111.038 419.961 116.898 397.583 131.53C392.25 129.316 384.963 113.792 381.583 115.53C369.763 121.61 366.691 135.085 376.667 148.347L317.583 158.263C292.807 161.604 268.016 163.101 243.396 163.597C244.722 167.429 246.356 171.233 248.208 173.647C253.427 180.449 268.531 179.857 269.278 188.397C271.213 210.495 244.402 235.812 222.222 235.454C206.821 235.206 205.205 206.692 190.618 201.741C171.521 195.259 148.998 220.511 130.919 211.573C115.652 204.026 105.927 171.773 103.083 161.163C92.87 161.036 82.756 161.021 72.767 161.198C60.203 161.564 49.865 166.843 43.359 175.437C34.683 186.895 31.707 202.095 30.105 218.362C28.325 236.419 36.252 271.369 35.622 288.644C35.118 302.494 28.129 300.514 23.71 307.532C10.19 329.002 32.604 328.362 40.724 313.092C53.206 289.619 44.977 249.982 47.919 220.118C49.774 184.358 58.516 196.181 63.583 195.53C59.383 208.595 57.373 226.492 56.583 246.864C63.478 244.522 93.081 235.264 99.313 246.69C106.185 259.288 71.511 268.706 75.435 282.509C77.899 291.175 98.385 284.887 100.017 293.747C103.339 311.782 67.887 332.46 57.781 337.956C58.593 361.285 59.345 383.523 59.019 403.042L88.91 403.042C84.676 386.499 76.872 353.098 84.85 347.958C106.275 329.867 114.686 310.474 127.582 291.53C136.337 294.086 144.502 296.317 152.364 298.202C155.917 299.174 159.608 299.973 163.348 300.642C188.207 305.609 224.901 306.32 254.131 300.47C257.891 334.59 261.394 368.922 258.733 403.042L287.69 403.042C275.315 376.14 283.427 337.998 301.582 316.772L346.516 283.31C371.397 266.926 389.446 245.314 402.498 219.93C432.9 223.343 459.584 223.22 479.69 219.144L492.53 199.594C468.273 181.737 449.23 163.009 429.582 141.464C439.645 126.931 454.609 118.699 468.957 108.958Z" class="" fill="#ffffff" fill-opacity="1"></path><path d="M429.583 163.53C435.741 163.53 439.59 170.197 436.511 175.53C435.082 178.005 432.441 179.53 429.583 179.53C423.425 179.53 419.576 172.863 422.655 167.53C424.084 165.055 426.725 163.53 429.583 163.53Z" class="selected" fill="#d0021b" fill-opacity="1"></path><path d="M366.2 183.481C371.229 193.303 340.03 194.289 341.267 205.253C342.265 214.1 363.471 209.092 364.797 217.896C368.615 243.269 336.357 271.701 310.717 272.676C296.455 273.22 275.815 258.616 278.409 244.583C281.014 230.491 312.96 242.926 318.792 229.835C323.516 219.232 300.44 207.825 305.8 197.528C312.064 185.496 336.164 174.975 347.734 174.882C359.304 174.789 363.34 178.229 366.2 183.482Z" class="" fill="#181e2a" fill-opacity="1"></path><path d="M339.615 309.827L304.908 333.787L311.372 403.042L345.786 403.042C334.003 380.588 330.206 347.536 339.615 309.827Z" class="" fill="#181e2a" fill-opacity="1"></path><path d="M135.054 311.237C129.007 323.421 120.907 333.207 112.88 342.479C118.85 345.714 124.528 347.893 130.034 349.093C141.252 351.536 151.67 349.426 159.982 344.685C170.038 338.948 177.503 330.233 184.097 321.317C169.482 320.448 151.137 318.355 135.054 311.237Z" class="" fill="#fc88fc" fill-opacity="1"></path><path d="M159.306 363.237C150.569 365.822 141.854 366.937 133.74 366.197C138.907 378.821 144.19 390.349 149.564 403.042L177.87 403.042C167.477 384.562 161.722 373.757 159.306 363.237Z" class="" fill="#181e2a" fill-opacity="1"></path></g></g></svg>