<svg xmlns="http://www.w3.org/2000/svg" viewBox="0 0 512 512" style="height: 512px; width: 512px;"><g class="" transform="translate(0,0)" style=""><g><path d="M319.398 26.76C309.888 26.686 300.161 28.937 290.432 35.375C215.314 85.075 272.278 150.345 288.406 201.551C300.288 204.301 314.474 205.047 328.98 203.337C345.992 201.331 363.326 196.075 378.002 187.972C371.822 176.304 381.622 158.372 387.037 149.244L470.433 140.852C482.541 133.244 491.919 121.595 474.488 116.639L391.603 105.191C398.616 76.871 369.2 39.583 350.568 33.271C340.67 29.917 330.175 26.844 319.398 26.761Z" class="" fill="#2f9973" fill-opacity="1"></path><path d="M348.441 75.97C356.727 75.97 363.441 82.686 363.441 90.97C363.441 99.255 356.727 105.97 348.441 105.97C340.158 105.97 333.441 99.255 333.441 90.97C333.441 82.686 340.158 75.97 348.441 75.97Z" class="" fill="#000000" fill-opacity="1"></path><path d="M391.479 201.025C373.385 212.147 352.033 218.745 331.091 221.213C316.827 222.895 302.719 222.713 289.808 220.393C212.793 239.288 155.818 257.269 78.568 257.269C54.358 254.154 46.952 245.273 28.2 237.189C44.437 294.069 31.942 332.815 92.582 368.382C197.727 418.579 311.027 419.909 412.582 368.382C434.542 357.24 446.42 264.647 430.568 241.268C422.298 229.072 402.912 211.154 391.478 201.023Z" class="" fill="#552632" fill-opacity="1"></path><path d="M362.549 256.295C362.824 284.367 349.211 307.263 328.969 323.335C308.729 339.409 282.009 349.383 253.956 354.26C225.903 359.136 196.463 358.873 170.458 353.543C144.453 348.213 121.604 337.961 107.588 321.053L121.444 309.566C131.44 321.624 150.602 331.096 174.074 335.908C197.544 340.718 225.048 341.015 250.874 336.525C276.7 332.035 300.796 322.721 317.776 309.238C334.756 295.755 344.77 278.83 344.55 256.473L362.547 256.295Z" class="" fill="#c9c9c9" fill-opacity="1"></path><path d="M176.17 416.35L175.904 460.787C164.621 465.8 155.654 473.631 148.418 485.242L292.418 485.242C277.526 470.35 259.01 455.419 228.144 453.465L228.332 424.342C222.446 423.782 216.42 423.092 210.346 422.282L210.142 453.547C204.368 453.872 198.972 454.467 193.937 455.391L194.147 419.825C188.019 418.781 181.971 417.631 176.169 416.351Z" class="selected" fill="#ed4b33" fill-opacity="1"></path></g></g></svg>