<svg xmlns="http://www.w3.org/2000/svg" viewBox="0 0 512 512" style="height: 512px; width: 512px;"><g class="" transform="translate(0,0)" style=""><g><path d="M382.9 28.65C356.7 33.87 343.9 42.36 332.1 59.15C321.3 74.28 311.6 97.49 297.9 129.2C304.4 129 311.1 128.9 317.2 129L316.8 148.4C199.7 145.4 123.7 225.4 41.72 263.5C67.89 303 115.5 326.6 169 322.8C226.3 318.7 290.9 283.1 342.2 199.4L358.7 209.4C304.7 297.2 234.7 337.3 170.3 342C149.2 343.6 128.7 341.2 109.7 335.5C90.3 350.5 62.4 366.9 21.01 380C79.13 408 157.1 378.2 212.2 361.4C252.1 366.8 281.9 367.2 315.8 362.4C314.5 355.6 315.4 348.4 316.8 339.8C320.6 318.8 330.4 291.4 344.4 265.4C358.6 239.4 376.6 215 398.9 201.6C414.2 194 426.6 189.6 441.5 192.8C434.4 179.9 427.4 170.7 418.2 161.2L427.4 118.7C422 115.9 417.2 112.4 413.3 108.3C410.1 104.7 407.3 100.6 406.5 95.4C405.7 90.26 407.3 84.13 411.1 79.96C416.5 74.04 423 68.38 429 62.89C434 58.27 438.5 53.72 441.2 50.31C431.2 35.65 411.8 28 394.7 27.7C390.7 27.58 386.3 28.01 382.9 28.65Z" class="" fill="#7e6230" fill-opacity="1"></path><path d="M381.1 46.78C390.5 46.78 398.1 54.47 398.1 63.89C398.1 73.31 390.5 80.98 381.1 81.02C371.6 81.02 364 73.35 364 63.89C364 54.43 371.6 46.77 381.1 46.78Z" class="" fill="#000000" fill-opacity="1"></path><path d="M453.1 66.08C444.5 75.74 434.3 83.22 425.7 92.61C428.9 98.22 437.1 102.1 442.3 104L491 87.48Z" class="" fill="#000000" fill-opacity="1"></path><path d="M408.7 217.9C391.8 228.4 374.4 250.4 361.5 274.6C348.2 298.7 339 325.2 335.9 343C334.6 350.1 334.6 355.8 334.8 358.8C395.7 345.2 430.4 314.9 445.1 281.3C454.2 260.6 455.7 238.2 450.6 216.9C437.3 208.7 421.5 210.4 408.7 217.9Z" class="" fill="#d0021b" fill-opacity="1"></path><path d="M338.1 377.6C332 379 325.6 380.3 319.1 381.2L329.9 427.3L305.9 469.7L314.6 475.9L335.5 451.5L349 482.1L358.1 479.5L354.4 446.5L386.2 455.1L388.7 447L348.7 423.2Z" class="" fill="#d0021b" fill-opacity="1"></path><path d="M239 384.6L234.5 428.8L196.2 456.8L198.9 463.2L232.2 451.8L233 484.3L241.7 483.3L251.5 452.8L280 473.6L284.9 466.3L253.8 429.6L258.3 385.5C251.6 385.4 245.2 385.1 239 384.6Z" class="selected" fill="#d0021b" fill-opacity="1"></path></g></g></svg>