<svg xmlns="http://www.w3.org/2000/svg" viewBox="0 0 512 512" style="height: 512px; width: 512px;"><g class="" transform="translate(0,0)" style=""><g><path d="M242.29 27.29C238.125 27.29 237.5 27.985 236.697 30.348C235.894 32.71 235.983 38.716 240.762 47.445C249.52 63.445 273.118 87.171 319.437 112.027C326.587 104.547 335.041 99.107 344.007 95.314C318.527 81.238 299.957 65.734 285.115 53.156C266.185 37.116 253.789 27.289 242.289 27.289Z" class="" fill="#9b9b9b" fill-opacity="1"></path><path d="M176.016 81.95C172.201 81.957 171.336 82.814 170.946 83.305C170.556 83.795 169.946 85.187 170.461 88.43C171.491 94.914 177.621 106.445 188.461 117.373C210.144 139.228 249.254 159.66 298.003 152.093C300.133 151.763 302.728 151.477 305.849 153.287C308.969 155.097 310.579 159.247 310.619 161.647C310.695 166.454 309.124 168.521 307.897 171.193C305.445 176.538 303.547 182.85 303.522 182.663L303.522 182.666C305.502 197.666 317.896 208.946 335.918 217.296C353.941 225.649 376.668 230.3 394.793 232.033C407.345 233.233 422.023 233.028 435.693 230.645C434.138 227.93 433.017 225.069 432.383 222.129C430.62 213.973 432.488 205.739 436.476 198.802C442.868 187.682 454.588 179.117 468.836 175.972C464.196 168.135 458.402 159.649 451.812 151.38C431.892 126.388 404.379 104.425 383.834 103.996C363.369 103.569 339.727 110.051 326.467 128.238C324.227 131.308 320.907 132.382 318.449 132.698C315.992 133.016 313.826 132.798 311.529 132.414C306.937 131.648 301.829 130.041 295.916 127.887C284.091 123.579 269.291 116.997 253.789 110.113C238.287 103.23 222.121 96.053 208.045 90.673C193.969 85.293 181.499 81.938 176.018 81.949Z" class="" fill="#9b9b9b" fill-opacity="1"></path><path d="M400.438 143.865C409.089 144.118 415.971 151.204 415.971 159.859C415.971 172.176 402.638 179.874 391.971 173.715C387.021 170.857 383.971 165.575 383.971 159.859C383.97 150.839 391.422 143.601 400.438 143.864Z" class="" fill="#000000" fill-opacity="1"></path><path d="M39.79 190.777C38.986 190.783 37.773 191.027 35.773 192.017C35.772 192.017 35.772 192.017 35.771 192.017C31.519 194.12 28.334 199.23 26.888 208.342C25.441 217.452 26.192 229.612 28.776 241.872C31.361 254.135 35.73 266.555 40.892 276.506C43.915 282.333 47.278 287.074 50.422 290.639C55.388 273.342 64.365 256.806 78.119 242.199C74.966 240.161 72.151 237.777 69.754 235.153C62.704 227.436 58.15 218.28 54.106 210.276C50.061 202.273 46.286 195.422 43.466 192.671C42.058 191.295 41.246 190.957 40.476 190.831C40.284 190.799 40.062 190.774 39.793 190.776Z" class="" fill="#9b9b9b" fill-opacity="1"></path><path d="M477.42 192.837C465.765 193.967 456.13 200.727 452.078 207.773C449.895 211.57 449.284 215.141 449.973 218.328C450.483 220.688 451.683 223.125 454.381 225.618C466.234 221.054 475.538 214.198 480.526 204.68C480.24 205.1 480.708 203.36 480.022 200.496C479.528 198.426 478.625 195.786 477.422 192.836Z" class="" fill="#000000" fill-opacity="1"></path><path d="M278.924 200.561C276.461 200.557 274.028 200.568 271.624 200.595C200.087 201.401 151.036 214.065 119 232.782C82.387 254.175 67.284 282.874 64.156 314.222C61.028 345.568 70.756 379.735 86.156 408.782C100.996 436.77 121.25 459.809 138.126 471.002L312.19 471.002C312.056 469.092 311.52 467.447 310.688 465.814C309.051 462.604 305.77 459.254 300.656 456.127C290.428 449.871 273.536 445.082 255.844 441.689C238.151 438.297 219.669 436.093 205.219 433.689C197.992 432.489 191.826 431.312 186.687 429.564C184.117 428.691 181.767 427.751 179.374 425.971C176.982 424.189 174.061 420.586 174.061 416.001C174.061 413.391 175.331 411.019 176.436 409.781C177.543 408.545 178.466 408.041 179.186 407.657C180.628 406.892 181.469 406.705 182.311 406.501C183.997 406.093 185.549 405.896 187.436 405.688C191.212 405.274 196.15 404.938 202.156 404.501C214.166 403.626 230.263 402.395 247.124 399.813C280.846 394.651 316.506 383.035 328.28 363.376C334.683 352.686 333.97 342.706 327.72 332.22C321.467 321.733 308.902 311.492 292 304.844C258.197 291.547 207.93 292.38 159.28 327.314L148.78 312.687C182.107 288.757 216.77 279.027 247.78 278.907C266.388 278.835 283.672 282.237 298.562 288.094C318.416 295.904 334.228 308.024 343.156 323C352.086 337.976 353.352 356.537 343.719 372.625C326.079 402.075 285.243 412.175 249.843 417.595C243.946 418.497 238.528 419.065 232.999 419.687C241.422 420.937 250.317 422.293 259.219 424C277.763 427.556 296.112 432.25 310.061 440.78C317.036 445.047 323.051 450.436 326.718 457.625C328.776 461.665 329.922 466.218 330.088 471L460.748 471C462.82 469.24 464.183 467.746 464.592 466.937C465.13 465.873 465.052 465.759 464.842 464.875C464.419 463.105 461.175 458.71 457.062 453.75C454.535 450.706 446.045 445.833 435.404 443.156C424.764 440.479 412.06 439.506 401.154 440.936L398.81 441.219L396.592 440.343C389.925 437.628 384.728 430.691 384.342 424.03C383.956 417.37 386.232 411.678 389.062 405.563C394.717 393.333 403.864 379.197 411.248 362.843C418.632 346.491 424.155 328.323 422.968 309C421.815 290.27 414.501 270.07 395.128 248.12C394.506 248.068 393.88 248.02 393.268 247.96L393.266 247.96C373.761 246.096 349.742 241.34 329.186 231.814C313.953 224.754 300.121 214.647 292.771 200.74C288.079 200.64 283.439 200.568 278.921 200.56Z" class="selected" fill="#9b9b9b" fill-opacity="1"></path></g></g></svg>