<svg xmlns="http://www.w3.org/2000/svg" viewBox="0 0 512 512" style="height: 512px; width: 512px;"><g class="" transform="translate(0,0)" style=""><g><path d="M343.313 22.22C285.983 22.22 282.053 58.373 252.188 77.094C154.782 42.52 133.115 221.496 169.844 330C154.448 361.924 139.108 405.9 126.031 464.906C182.859 495.566 245.155 503.561 308.251 474.812C302.051 437.097 294.071 405.954 286.281 379.437C311.306 366.807 345.875 364.864 372.781 393.844C373.021 365.218 353.759 352.888 332.251 351.594L310.221 304.281C352.827 259.225 384.601 204.101 368.126 147.221C357.823 108.771 426.329 84.996 490.47 93.471C465.947 72.307 434.48 62.989 404.625 59.595C395.782 37.832 372.009 22.22 343.312 22.22Z" class="" fill="#0d0d0e" fill-opacity="1"></path><path d="M354.281 44.156C364.089 44.156 372.064 52.1 372.064 61.906C372.064 71.713 364.09 79.656 354.282 79.656C344.475 79.656 336.532 71.713 336.532 61.906C336.532 52.1 344.477 44.156 354.282 44.156Z" class="" fill="#3d090e" fill-opacity="1"></path><path d="M296.189 318.406L312.469 353.344C300.849 356.042 290.144 361.561 283.157 369.031C279.859 358.191 276.659 348.128 273.687 338.751C281.267 332.301 288.815 325.498 296.189 318.407Z" class="selected" fill="#181e2a" fill-opacity="1"></path></g></g></svg>