<svg xmlns="http://www.w3.org/2000/svg" viewBox="0 0 512 512" style="height: 512px; width: 512px;"><g class="" transform="translate(0,0)" style=""><g><path d="M392.8 107.5C402.1 112.8 418.6 116.8 432.8 116.7C440.5 116.6 447.4 115.5 452.3 113.5C457.3 111.7 459.2 108.6 461.2 104.7C452 98.62 439.1 92.43 429.4 91.83C414.5 92.36 400.6 99.96 392.8 107.5Z" class="" fill="#000000" fill-opacity="1"></path><path d="M139.8 127.7C138.1 133.2 131.9 135.8 126.8 133.1C100.3 118.6 76.34 126.2 59.09 141.8C23.16 174.4 13.96 229.1 26.62 287.5C33.93 321.1 45.61 340.5 67.91 350.3C67.91 350.4 68.01 350.4 68.06 350.4C70.28 351.4 72.27 352.3 74.15 353.2L78.76 331.2C79.78 326.3 84.56 323.2 89.42 324.2C94.28 325.2 97.4 330 96.38 334.9L72.88 446.9C77.67 454.1 89.28 448.1 94.18 445.7L132.3 339.2C143.1 329.8 153.5 320.2 161 310C167.6 300.9 171.4 291.6 171.6 286.5C171.8 281.5 176 277.6 181 277.8C186 278 190 282.4 189.6 287.4C189 298.6 183.4 309.8 175.6 320.6C168.3 330.6 158.9 340.2 148.4 347.8L145.1 356.7C152 365.4 158.5 370.5 164.7 373.5C173.5 377.6 182.4 378.1 193.2 376.8C209.6 374.9 227.8 363.9 236.7 339.6C239.5 331.9 250.3 331.6 253.5 339.1C261.2 360.3 289.6 371.7 308.6 363.1L304.7 339.8C303.9 334.9 307.2 330.2 312.1 329.4C317 328.5 321.7 331.9 322.5 336.8L340.1 442.7C349.3 449 354.6 445.1 360 438.3L346.2 323.9C345.5 318.6 349.5 313.9 354.8 313.7C359.6 313.5 363.6 317 364.1 321.7L368.4 357.4C373.5 356.2 377.5 354.9 380.8 352.4C385.1 349.2 389.3 343.7 392.9 330.9C394.6 324.9 401.9 322.4 407 326.2C420.6 334.5 434.4 324.4 442.6 314C455.5 297.5 457.3 271.6 455.8 244.8C453.7 245.1 451.6 245.3 449.5 245.4C440.7 245.9 431.6 244.5 423.8 241C411.4 234 401.8 222.6 395.6 212.1C391.7 205.3 388.3 198.4 385.1 192.1C379.7 202 374.1 215.2 365.9 217.1C353.4 219.2 342 213.4 336.1 204.4C330.2 195.5 328.7 184.2 331.3 173.3C334 161.6 341.1 135 353.9 117.2C356.1 114.3 358.4 111.9 360.7 109.8C353.2 106.7 344.5 106 337.8 106C332 106 324.3 107.8 318.1 111C311.9 114.3 307.4 118.8 305.9 122.8C302.7 131.3 290.4 130.3 288.6 121.5C284.8 98.72 234.7 103.7 223 123.5C219.2 130.5 208.9 129.4 206.5 121.8C198.4 99.19 143.8 100.5 139.8 127.7Z" class="" fill="#ffffff" fill-opacity="1"></path><path d="M484.8 126.2C486.5 142.6 488.3 158.4 489 171.8C490.8 178.3 495 190.7 497.7 179.1C498.6 175 498.5 168.1 497.3 160.5C497.2 153.4 482.8 113.2 484.8 126.2Z" class="" fill="#000000" fill-opacity="1"></path><path d="M372.1 123.7C360.2 138.7 352.9 161.1 348.8 177.4C348.2 183.2 348.2 190 351.1 194.5C353.4 197.9 355.9 199.7 360.5 199.5C366.3 190.1 372.6 179.7 376.1 171.3C374.9 163.4 373.3 151.4 372.5 139.9C372.1 134.1 371.9 128.7 372.1 123.7Z" class="" fill="#000000" fill-opacity="1"></path><path d="M466.5 126.1C464.1 127.7 461.7 129.2 459 130.2C451.2 133.4 442.2 134.6 433 134.7C418.2 134.8 402.8 132 390.1 126.3C390.1 129.9 390.2 134 390.5 138.6C391.4 151.2 393.5 165.8 394.5 172.1C405 188.7 414.4 216.5 431.3 224.6C437.1 226.6 443.2 227.7 448.5 227.5C454.5 227.1 459.1 224.9 460 223.8C463.5 215.8 465.9 208.6 467.3 201.5C469.4 190.6 470.7 178.2 470.9 169.9C471.2 163.5 470.3 156.6 469.8 151.2C468.4 155.3 464.1 157.8 459.8 157.1C455.5 156.4 452.3 152.7 452.3 148.3C452.3 143.2 456.5 139.1 461.6 139.3C464.6 139.3 467.4 141 469 143.6C468.1 137.5 467.6 131.6 466.5 126.1Z" class="" fill="#000000" fill-opacity="1"></path><path d="M408.2 142.6C413.1 142.8 416.9 146.8 416.9 151.6C416.9 156.6 412.9 160.6 407.9 160.6C403 160.6 398.9 156.6 398.9 151.6C398.9 146.6 403.1 142.5 408.2 142.6Z" class="" fill="#ffffff" fill-opacity="1"></path><path d="M455.7 190.9C459.4 190.8 462.2 192.8 462.2 197.1C462.2 204.9 456.4 212.1 449.5 216.1L448.5 193C451 191.6 453.5 190.9 455.7 190.9Z" class="" fill="#ffffff" fill-opacity="1"></path><path d="M431.6 192.9C433.4 192.8 435.5 193.3 437.4 194.2L441.2 216.7C435.2 213 425.8 213.1 424.7 200.6C424.2 195.4 427.5 192.9 431.6 192.9Z" class="" fill="#ffffff" fill-opacity="1"></path><path d="M400.7 357.1C397 362.2 393.1 366.2 388.1 369.2L404.7 431.2C412.3 432.7 420.6 432.2 423.9 426.1Z" class="" fill="#000000" fill-opacity="1"></path><path d="M159.5 390.8L161 437.6C168.9 445.5 173.9 442.4 180.7 434.6L177 395.1C170.7 394.2 164.4 392.9 159.5 390.8Z" class="selected" fill="#000000" fill-opacity="1"></path></g></g></svg>