<svg xmlns="http://www.w3.org/2000/svg" viewBox="0 0 512 512" style="height: 512px; width: 512px;"><g class="" transform="translate(0,0)" style=""><g><path d="M256.3 23.4C248.5 41.53 240.1 53.72 235.1 64.06C228.7 77.53 226.6 88.01 236.4 112.3L276.3 112.3C286.7 87.92 284.6 77.61 278 64.15C272.9 53.82 264.2 41.6 256.3 23.4Z" class="" fill="#d0021b" fill-opacity="1"></path><path d="M208 130.2L218 148.2L294 148.2L304 130.2L208 130.2Z" class="" fill="#f8e71c" fill-opacity="1"></path><path d="M68.23 147.4C63.76 156.6 59.33 163.5 56.72 168.9C52.83 177 51.68 182.9 57.03 196.9L79.44 196.9C84.93 182.9 83.78 177.1 79.86 168.9C77.22 163.5 72.75 156.6 68.23 147.4Z" class="" fill="#f5a623" fill-opacity="1"></path><path d="M443.7 147.4C439.3 156.5 434.8 163.4 432.2 168.9C428.4 177 427.2 182.9 432.5 196.9L455 196.9C460.4 182.9 459.3 177.1 455.4 168.9C452.7 163.5 448.3 156.6 443.7 147.4Z" class="" fill="#f5a623" fill-opacity="1"></path><path d="M239.6 161C245.7 318.8 213.3 466.5 206.9 494L230.9 494C231.6 488.9 232.7 482 234.2 474.9C235.7 468 237.5 461 240.2 455C241.5 452.1 243 449.3 245.3 446.7C247.6 444.2 251.4 441.5 256.2 441.5C261.3 441.5 264.8 444.5 266.9 447C269 449.5 270.3 452.2 271.6 455.1C274.1 461 276 467.9 277.6 474.7C279.3 482.1 280.5 488.8 281.3 494L305.5 494C299.1 466.5 266.8 318.8 272.9 161L239.6 161Z" class="" fill="#f8e71c" fill-opacity="1"></path><path d="M28.02 212.2L38.02 230.2L98.02 230.2L108 212.2L28.02 212.2Z" class="" fill="#f8e71c" fill-opacity="1"></path><path d="M406 212.2L416 230.2L476 230.2L486 212.2L406 212.2Z" class="" fill="#f8e71c" fill-opacity="1"></path><path d="M60.11 245.1C63.5 344.1 44.48 435.7 38.73 461L82.74 461C85.24 451.8 87.71 438.6 89.62 420.2C82.34 378.3 74 313.5 76.34 245.1L60.11 245.1Z" class="selected" fill="#ffffff" fill-opacity="1"></path><path d="M435.6 245.1C437.9 313.4 429.6 378.1 422.4 420C424.1 438.5 426.5 451.7 428.8 461L473.3 461C467.5 435.7 448.5 344.1 451.9 245.1L435.6 245.1Z" class="" fill="#ffffff" fill-opacity="1"></path><path d="M220.2 269.8C197.9 275 163.8 279.9 111 282.8C111.1 304.5 109.4 318.8 106.3 328.1L215.4 328.1C217.3 309.5 219 289.9 220.2 269.8Z" class="" fill="#ffffff" fill-opacity="1"></path><path d="M292.3 269.8C293.5 289.9 295.2 309.5 297.1 328.1L407.8 328.1C404.4 318.9 401.9 304.9 401.4 282.8C348.7 279.9 314.6 275 292.3 269.8Z" class="" fill="#ffffff" fill-opacity="1"></path><path d="M111 348.2C110.5 418 104.4 454.2 97.66 473.7C96.83 476.1 95.98 478.3 95.12 480.2L191.6 480.2C197 454.6 206.2 407 213.1 348.2L111 348.2Z" class="" fill="#ffffff" fill-opacity="1"></path><path d="M299.3 348.2C306.3 407 315.4 454.6 320.8 480.2L416.2 480.2C415.4 478.2 414.6 476 413.8 473.6C407.4 454.1 401.7 417.9 401.2 348.2L299.3 348.2Z" class="" fill="#ffffff" fill-opacity="1"></path></g></g></svg>