<svg xmlns="http://www.w3.org/2000/svg" viewBox="0 0 512 512" style="height: 512px; width: 512px;"><g class="" transform="translate(0,0)" style=""><g><path d="M467.838 35.848C414.63 39.366 366.554 43.939 328.698 86.028C338.567 115.591 354.866 151.912 375.311 181.262C395.815 210.698 420.069 231.852 443.921 234.559C479.186 201.502 497.62 121.96 467.838 35.848Z" class="selected" fill="#f5a623" fill-opacity="1"></path><path d="M189.8 46.02C184.186 46.217 178.797 47.443 173.813 49.658C146.343 61.866 136.972 100.785 152.882 136.586C163.503 160.464 183.337 177.925 204.502 182.029C206.894 239.536 185.074 225.912 133.968 255.635L149.856 287.325C185.422 273.594 201.7 267.622 219.126 243.008C251.712 336.928 217.252 400.244 195.438 490.086L229.149 495.002C252.847 437.755 284.263 372.647 291.587 313.58C340.524 364.714 369.085 428.221 406.237 482.723L442.057 467.973C396.247 387.249 376.424 339.602 291.466 205.783C318.285 205.589 341.292 199.191 362.149 190.361C355.113 180.256 348.584 169.479 342.62 158.475C314.397 170.558 283.592 175.472 252.48 159.33C262.631 140.944 262.586 115.448 252.362 92.375C239.731 63.953 214.367 45.16 189.8 46.02Z" class="" fill="#ffffff" fill-opacity="1"></path><path d="M15.47 87.309L18.757 121.399L71.357 229.169L92.925 218.643L40.542 111.318L15.47 87.308Z" class="" fill="#9b9b9b" fill-opacity="1"></path><path d="M112.536 226.875L65.78 249.697L68.917 268.193L125.188 240.729L112.536 226.875Z" class="" fill="#f5a623" fill-opacity="1"></path><path d="M114.854 263.576L93.286 274.104L109.954 308.254L131.522 297.727L114.854 263.577Z" class="" fill="#9b9b9b" fill-opacity="1"></path></g></g></svg>