<svg xmlns="http://www.w3.org/2000/svg" viewBox="0 0 512 512" style="height: 512px; width: 512px;"><g class="" transform="translate(0,0)" style=""><g><path d="M259.125 16.938L216.22 128.094L97.343 164.25L203.873 160.03L167.437 254.437L270.156 106.25L320.376 170.656L259.126 16.936Z" class="" fill="#b8e986" fill-opacity="1"></path><path d="M309.531 80.625L345.907 182.905L243.563 176.155L415.626 230.031L369.126 297.157L497.596 192.877L380.656 185.187L309.532 80.627Z" class="" fill="#7ed321" fill-opacity="1"></path><path d="M186.064 179.595L20.97 190.437L108.906 261.812L108.531 388.937L136.281 284.03L218.626 350.875L109.345 207.5L186.063 179.594Z" class="" fill="#c4e79e" fill-opacity="1"></path><path d="M257.22 198.563C234.816 198.563 212.403 224.506 190 276.438C233.462 353.968 278.133 362.803 324.438 276.438C302.035 224.508 279.622 198.563 257.218 198.563Z" class="selected" fill="#f5a623" fill-opacity="1"></path><path d="M257.625 214.25C268.675 222.87 276.625 244.79 276.625 270.688C276.625 296.584 268.675 318.506 257.625 327.125C246.575 318.505 238.625 296.585 238.625 270.687C238.625 244.791 246.575 222.869 257.625 214.25Z" class="" fill="#f5a623" fill-opacity="1"></path><path d="M340.155 224.844L345.345 405.064L266.75 383L407.22 470.438L376.812 359.125L450.375 255.655L367.5 325.031L340.156 224.845Z" class="" fill="#417505" fill-opacity="1"></path><path d="M152.94 309.03L109.346 468.625L208.252 407.095L328.908 446.531L238.408 388.314L325.502 334.126L154.282 390.656L152.939 309.032Z" class="" fill="#264402" fill-opacity="1"></path></g></g></svg>