<svg xmlns="http://www.w3.org/2000/svg" viewBox="0 0 512 512" style="height: 512px; width: 512px;"><g class="" transform="translate(0,0)" style=""><g><path d="M66.89 18L128 128L18 117L18 149.5L96 208L18 247L18 282L128 304L124.4 320C111.8 332.1 102.5 346.5 95.94 362.5C81.51 397.7 79.3 448.2 79.04 494L97.14 494C97.48 449.9 99.92 400.2 112.6 369.3C121.5 347.4 135 329.7 157.2 317.2C153.1 295.2 151 273.7 151 256L151 241.4L164 248C173.6 252.7 180.5 254.2 187.1 253.7C181.9 239.7 179 224.1 179 208C179 178.9 188.1 152.8 202.3 134.3C216.5 115.8 235.4 105 256 105C276.6 105 295.5 115.8 309.7 134.3C323.9 152.8 333 178.9 333 208C333 224.1 330.1 239.7 324.9 253.7C331.5 254.2 338.5 252.7 348 248L361 241.4L361 256C361 273.7 358.9 295.2 354.8 317.2C377 329.7 390.5 347.4 399.4 369.3C412.1 400.2 414.5 449.9 414.9 494L433 494C432.7 448.2 430.5 397.7 416.1 362.5C409.5 346.5 400.2 332 387.5 319.9L384 304L494 282L494 247L416 208L494 149.5L494 117L384 128L445.1 18L407.3 18L304 80L285.4 18L226.6 18L208 80L104.7 18Z" class="" fill="#c9c9c9" fill-opacity="1"></path><path d="M208 215L208 233L240 233L240 215Z" class="" fill="#ffffff" fill-opacity="1"></path><path d="M272 215L272 233L304 233L304 215Z" class="selected" fill="#ffffff" fill-opacity="1"></path><path d="M238.4 251.1C225.7 257.8 214.7 264.6 202.8 268.5C192.8 271.9 181.7 272.6 169.5 269.3C170 277.3 170.8 286 171.9 295C199.1 294.6 223.6 291.7 249.6 265.6L251.3 264Z" class="" fill="#ffffff" fill-opacity="1"></path><path d="M273.6 251.1L260.7 264L262.4 265.6C288.4 291.7 312.9 294.6 340.1 295C341.2 286 342 277.3 342.5 269.3C330.3 272.6 319.2 271.9 309.2 268.5C297.3 264.6 286.3 257.8 273.6 251.1Z" class="" fill="#ffffff" fill-opacity="1"></path><path d="M256 284.3C229 308 200.8 312.1 174.7 312.8C176.4 321.8 178.3 330.8 180.7 339.7C182.9 348 185.5 356 188.3 363.6C193.9 353.1 201 343 208 336C208 357 201.1 371 196.4 382.8C200.2 390.4 204.2 397.2 208.5 402.8L233 378.3L233 400C233 414.5 235.8 419.1 240.4 423.6C243.8 427.1 249.5 430.5 256 435.9C262.5 430.5 268.2 427.1 271.6 423.6C276.2 419.1 279 414.5 279 400L279 378.3L303.5 402.8C307.8 397.2 311.8 390.4 315.6 382.8C310.9 371 304 357 304 336C311 343 318.1 353.1 323.7 363.6C326.5 356 329.1 348 331.3 339.7C333.7 330.8 335.6 321.8 337.3 312.8C311.2 312.1 283 308 256 284.3Z" class="" fill="#ffffff" fill-opacity="1"></path></g></g></svg>