<svg xmlns="http://www.w3.org/2000/svg" viewBox="0 0 512 512" style="height: 512px; width: 512px;"><g class="" transform="translate(0,0)" style=""><g><path d="M311.313 25.625L288.313 36.281L258.781 159.313L319.595 47.345L311.315 25.625Z" class="" fill="#4a4a4a" fill-opacity="1"></path><path d="M59.625 50.03C71.073 126.967 108.055 191.453 159.813 245.78C173.946 236.216 188.218 226.396 202.531 216.375C180.375 189.061 164.681 160.171 158.938 130.095C124.724 103.603 91.325 76.719 59.626 50.031Z" class="" fill="#4a90e2" fill-opacity="1"></path><path d="M450.095 50.062C419.178 76.1 386.64 102.33 353.31 128.22C342.977 186.454 295.223 240.294 235.092 286.844C169.659 337.498 88.532 379.778 19.812 408.25L19.81 441.03C113.46 406.898 215.36 359.652 296.685 294.438C375.72 231.06 435.014 151.375 450.095 50.063Z" class="" fill="#4a90e2" fill-opacity="1"></path><path d="M213.937 59.406L205.437 87.219L246.125 160.279L239.25 74.969L213.937 59.405Z" class="" fill="#4a90e2" fill-opacity="1"></path><path d="M328.625 147.219C223.39 227.47 112.257 302.862 19.812 355.905L19.812 388C85.729 360.086 162.392 319.49 223.656 272.062C273.486 233.488 312.478 190.549 328.626 147.219Z" class="" fill="#4a4a4a" fill-opacity="1"></path><path d="M184.062 149.374C191.412 168.264 203.092 187.054 218.062 205.437C225.092 200.457 232.118 195.407 239.156 190.343C220.712 176.887 202.293 163.223 184.062 149.373Z" class="" fill="#4a4a4a" fill-opacity="1"></path><path d="M352.656 269.72C343.083 279.192 333.076 288.308 322.75 297.125C377.664 334.419 439.978 366.281 494.656 389.281L494.656 358.19C450.796 333.202 402.553 303.06 352.656 269.72Z" class="" fill="#4a4a4a" fill-opacity="1"></path><path d="M307.75 309.53C296.1 318.85 284.054 327.783 271.72 336.375C342.046 381.51 421.05 416.15 494.655 442.75L494.655 409.53C435.797 385.307 367.555 350.803 307.749 309.53Z" class="" fill="#4a90e2" fill-opacity="1"></path><path d="M249.125 361.563L202.937 439.813L210.75 463.406L238.5 452.062L249.125 361.562Z" class="" fill="#4a90e2" fill-opacity="1"></path><path d="M264.969 362.375L316.343 467L352.813 477.28L349.28 445.313L264.97 362.375Z" class="selected" fill="#4a4a4a" fill-opacity="1"></path></g></g></svg>