<svg xmlns="http://www.w3.org/2000/svg" viewBox="0 0 512 512" style="height: 512px; width: 512px;"><g class="" transform="translate(0,0)" style=""><g><path d="M256 41C209 41 171.4 48.94 145.9 70.83C120.3 92.72 105 129.5 105 192L105 205.2L117.6 222L140.5 166.1L149.2 184.4C149.2 184.4 151.9 189.9 155.5 199L208 199L208 217L162.2 217C165.2 225.9 168.2 236.1 170.8 247L240 247L240 265L174.3 265C177 281.8 177.8 299.3 174.6 315.7C171.2 332.2 163.3 347.9 148.9 358.7C159.9 374.5 168.5 390.7 174.9 407L178.7 407C194.2 388.6 216.7 375.2 235.6 364.6L245.6 359.1L248.7 370.1C252.5 383.8 254.8 396 255.6 407L294.3 407C294.3 403.4 294.7 399.7 295.4 396.1C296.7 389.8 299 383.5 302.2 377.2C294.8 375.3 287.8 372.9 281.5 369.8C268.3 363.3 257.1 353.3 255.3 340.3C253.6 327.3 262.3 317.9 273.9 312.1C279 309.5 284.9 307.5 291.5 306.1C287.2 300.3 283.7 294.5 281.1 288.9C278.1 282.5 276.1 276.1 275.8 269.9C275.6 263.7 277.1 257.2 281.5 252.2C286 247.3 292.4 245.1 298.5 244.7C304.7 244.4 311.2 245.7 317.9 248C323.7 250 329.8 252.8 335.9 256.4C336.5 249.1 338 242.4 340.2 236.6C343.5 227.8 348.9 220.3 356.6 217L240 217L240 199L368 199L368 215.3C380.4 216.5 390.8 226.3 398.4 238.2C401.7 243.5 404.6 249.4 407 255.8L407 192C407 129.5 391.7 92.72 366.1 70.83C340.6 48.94 303 41 256 41Z" class="selected" fill="#4a4a4a" fill-opacity="1"></path><path d="M144 151L288 151L288 169L144 169L144 151Z" class="" fill="#4a4a4a" fill-opacity="1"></path><path d="M320 151L368 151L368 169L320 169L320 151Z" class="" fill="#4a4a4a" fill-opacity="1"></path><path d="M82.29 204.9L93.25 276.3L39 229.7L68.42 286.3L16.23 278.3C24 289.5 35.27 304.4 49.07 318.3C61.89 331.2 76.56 342.8 90.97 348.7C105.4 354.6 118.8 355.4 132.7 347.7C146.8 339.9 153.8 327.8 156.9 312.2C160 296.6 158.7 277.8 155.2 259.9C151.6 241.6 145.9 224.4 141.2 211.9L122.2 258.2L82.29 204.9Z" class="" fill="#bd10e0" fill-opacity="1"></path><path d="M368.7 235.1C365.4 235.1 360.8 238.2 357.5 247.1C354.1 256 352.7 269.4 354.7 284.5C355.2 288 355.8 291.4 356.5 294.7C368.9 289.4 383.4 289.6 396.8 294.8C396.7 291.9 396.4 288.8 396 285.7C394 270.6 389 257 383.2 247.8C377.5 238.7 372 235.2 368.7 235.1Z" class="" fill="#f8e71c" fill-opacity="1"></path><path d="M299.5 262.7C296.6 262.9 295.5 263.6 294.9 264.3C294.3 265 293.7 266.1 293.8 269.1C294 272 295.1 276.3 297.4 281.3C300.5 288 305.8 295.9 312.7 303.8C314.7 303.7 316.7 303.7 318.7 303.8C326.2 304 333.5 304.9 340.5 306.3C340.6 306.1 340.8 306 340.9 305.8C341.2 305.5 341.5 305.2 341.7 304.9C339.4 297.7 337.6 290 336.6 282C336.4 280.7 336.3 279.4 336.1 278.1C327.6 272 319.2 267.5 312.1 265C307.5 263.4 303.6 262.8 300.7 262.7L299.5 262.7Z" class="" fill="#f8e71c" fill-opacity="1"></path><path d="M440.4 266.7C437.8 266.7 434.8 267.3 431.4 268.3C425.8 270.1 419.4 273.5 413.2 278.4C413.5 280.3 413.8 282.2 414.1 284.2C415.1 291.7 415.4 298.9 415.1 305.7C415.6 306.1 416.1 306.6 416.6 307C417 307.4 417.4 307.8 417.9 308.2C424 307.4 430.5 307 437.4 307.2C440.1 307.3 442.7 307.4 445.3 307.7C449.5 300.9 452.3 294.2 453.5 288.3C455.4 279 453.7 272.9 450.2 269.7C448 267.8 444.7 266.6 440.4 266.7Z" class="" fill="#f8e71c" fill-opacity="1"></path><path d="M375.8 308.8C367.3 308.9 359.6 312 354.3 317.9C343 330.4 345.3 352.6 362 367.6C378.6 382.6 401 382.6 412.2 370.1C423.5 357.6 421.2 335.3 404.6 320.3C395.8 312.3 385.3 308.6 375.8 308.8Z" class="" fill="#f5a623" fill-opacity="1"></path><path d="M318.3 321.7C304.3 321.7 292.1 324.4 284.1 328.4C275.6 332.6 273 337.6 273.4 340.8C273.9 344.1 277.8 349.3 287.5 354C297.2 358.8 311.3 362.4 326.5 362.8C329.7 362.9 332.8 362.8 335.8 362.6C329.3 349.8 327.5 335.4 331.4 322.6C328.1 322.2 324.6 321.9 321.1 321.8C320.1 321.8 319.2 321.8 318.3 321.7Z" class="" fill="#f8e71c" fill-opacity="1"></path><path d="M437 325.1C434.9 325.1 432.8 325.2 430.7 325.3C437.3 338.1 439 352.6 435 365.4C438.4 365.8 441.8 366.1 445.3 366.2C460.5 366.7 473.7 363.9 482.2 359.6C490.7 355.4 493.4 350.4 492.9 347.1C492.5 343.9 488.5 338.7 478.8 334C469.1 329.2 455 325.6 439.8 325.2C438.9 325.2 437.9 325.2 437 325.1Z" class="" fill="#f8e71c" fill-opacity="1"></path><path d="M133.2 367.3C123.8 370.8 114.3 371.7 105 370.7L105 407L155.7 407C149.9 393.6 142.5 380.4 133.2 367.3Z" class="" fill="#4a4a4a" fill-opacity="1"></path><path d="M348.6 379.8C342.5 380.6 335.8 381 328.9 380.8C326.3 380.7 323.7 380.5 321.2 380.3C317 387.1 314.3 393.8 313 399.7C311.1 408.9 312.9 415 316.4 418.2C319.9 421.3 326.1 422.4 335.2 419.6C340.9 417.8 347.2 414.3 353.5 409.5C353 407 352.5 404.4 352.2 401.8C351.3 394.9 351 388.3 351.2 382.1C350.8 381.7 350.3 381.4 349.9 381C349.5 380.6 349 380.2 348.6 379.8Z" class="" fill="#f8e71c" fill-opacity="1"></path><path d="M425.9 381.7C425.8 381.9 425.7 382 425.6 382.1C425.4 382.3 425.2 382.5 425.1 382.7C427.2 389.4 428.9 396.5 429.8 404C430.1 406 430.3 408 430.4 409.9C439 416.1 447.4 420.5 454.4 422.9C459.7 424.7 464.1 425.4 467 425.2C470 425.1 471.1 424.3 471.7 423.7C472.3 423 472.9 421.8 472.7 418.9C472.6 415.9 471.5 411.6 469.1 406.6C466 399.9 460.8 392 453.8 384.2C451.8 384.3 449.8 384.3 447.7 384.2C440.2 384 432.9 383.1 425.9 381.7Z" class="" fill="#f8e71c" fill-opacity="1"></path><path d="M234.2 386.3C216.3 397 197.9 410 188 424.5C182.1 433.2 179.1 442 179.8 451.8C180.4 460.1 184 469.7 192 480.6C211.6 468.8 225.1 457.8 232 444.1C238.7 430.6 240.3 413.1 234.2 386.3Z" class="" fill="#417505" fill-opacity="1"></path><path d="M369.5 393.1C369.6 396.1 369.9 399.2 370.3 402.3C372.3 417.3 377.3 431 383.1 440.2C388.8 449.3 394.3 452.7 397.6 452.8C400.9 452.9 405.6 449.8 408.9 440.9C412.3 432 413.7 418.5 411.7 403.5C411.2 400 410.6 396.6 409.9 393.3C397.5 398.5 382.9 398.3 369.5 393.1Z" class="" fill="#f8e71c" fill-opacity="1"></path><path d="M41 425L41 487L172.8 487C172.8 486.2 172.7 485.3 172.7 484.5C166.1 473.7 162.6 463.3 161.8 453.1C161.3 445.6 162.3 438.4 164.5 431.7C163.9 429.5 163.2 427.2 162.5 425L41 425Z" class="" fill="#8b572a" fill-opacity="1"></path><path d="M255.6 425C254.6 435 252.2 444 248.1 452.1C241 466.2 229.8 477.1 215.5 487L324.2 487C322.9 469.3 329.1 452.8 338.9 437.3C326.6 440.7 313.6 439.8 304.4 431.5C302.2 429.6 300.5 427.4 299 425L255.6 425Z" class="" fill="#8b572a" fill-opacity="1"></path><path d="M430.3 431.3C429.6 438 428.2 444.1 426.2 449.4C421.6 461.5 413.1 471.2 400 470.8C386.9 470.4 375.8 460.2 368 447.7C365.7 444.1 363.6 440.1 361.7 436C348.2 453.6 340.5 470.4 342.3 487L471 487L471 442.8C470 443 469 443.1 468 443.2C461.8 443.5 455.3 442.2 448.6 440C442.7 438 436.5 435 430.3 431.3Z" class="" fill="#8b572a" fill-opacity="1"></path></g></g></svg>