<svg xmlns="http://www.w3.org/2000/svg" viewBox="0 0 512 512" style="height: 512px; width: 512px;"><g class="" transform="translate(0,0)" style=""><g><path d="M256 34.25C210.3 115.3 165.1 172.3 131.3 219.3C95.53 268.9 73 307 73 352C73 397 94.91 429.8 129 452.5C163.1 475.2 209.5 487 256 487C302.5 487 348.9 475.2 383 452.5C417.1 429.8 439 397 439 352C439 307 416.5 268.9 380.7 219.3C346.9 172.3 301.7 115.3 256 34.25Z" class="selected" fill="#7ed321" fill-opacity="1"></path><path d="M304 128L257.2 262.4L374.2 262.4L178.7 471.3L237.9 312.1L130.5 312.1L304 128Z" class="" fill="#7ed321" fill-opacity="1"></path></g></g></svg>