<svg xmlns="http://www.w3.org/2000/svg" viewBox="0 0 512 512" style="height: 512px; width: 512px;"><g class="" transform="translate(0,0)" style=""><g><path d="M256 52.098C237.62 68.151 208.815 85.616 178.21 101.818C146.781 118.458 114.29 133.042 89.885 141.803C91.863 153.079 98.51 174.711 109.065 200.166C121.664 230.552 139.056 266.84 157.91 301.57C176.764 336.301 197.128 369.529 215.424 393.68C224.572 405.755 233.236 415.559 240.588 422.002C247.939 428.445 254 430.863 256 430.863C258 430.863 264.06 428.445 271.412 422.002C278.764 415.559 287.428 405.755 296.576 393.68C314.872 369.529 335.236 336.301 354.09 301.57C372.944 266.84 390.336 230.552 402.936 200.166C413.49 174.711 420.137 153.079 422.116 141.803C397.71 133.042 365.219 118.458 333.789 101.818C303.185 85.616 274.379 68.151 256 52.098Z" class="" fill="#4a90e2" fill-opacity="1"></path><path d="M123.975 61.814C91.995 77.804 59.817 93.736 27.943 109.83L23 112.326L23 117.863C23 128.863 27.334 144.331 33.46 162.711C39.587 181.091 47.68 201.352 55.95 217.889L72.05 209.839C64.32 194.376 56.413 174.639 50.54 157.018C46.009 143.427 42.842 130.627 41.607 123.123C71.597 108.013 101.857 92.999 132.025 77.914L123.975 61.814Z" class="" fill="#f8e71c" fill-opacity="1"></path><path d="M388.025 61.814L379.975 77.914C410.144 92.999 440.404 108.014 470.393 123.124C469.159 130.627 465.991 143.427 461.461 157.018C455.587 174.638 447.681 194.376 439.949 209.84L456.051 217.889C464.319 201.352 472.413 181.09 478.539 162.711C484.666 144.33 489 128.863 489 117.863L489 112.326L484.057 109.83C452.183 93.736 420.004 77.804 388.025 61.814Z" class="" fill="#f8e71c" fill-opacity="1"></path><path d="M256 98.186L262.777 105.941C270.143 114.371 290.484 126.071 312.087 135.773C333.692 145.475 356.69 153.917 371.207 159.455L377 161.665L377 167.863C377 174.168 375.169 180.779 372.379 189.121C369.589 197.463 365.689 207.206 360.99 217.901C351.594 239.29 339.008 264.443 325.912 288.607C312.816 312.772 299.237 335.902 287.76 353.277C282.021 361.965 276.84 369.193 272.283 374.59C270.005 377.288 267.911 379.528 265.689 381.398C263.468 383.268 261.407 385.374 256.424 385.609L256 385.629L255.576 385.609C250.593 385.374 248.532 383.269 246.311 381.399C244.089 379.529 241.995 377.289 239.717 374.589C235.161 369.193 229.979 361.965 224.24 353.277C212.763 335.902 199.184 312.772 186.088 288.607C172.992 264.443 160.406 239.29 151.01 217.9C146.312 207.206 142.411 197.463 139.621 189.121C136.831 180.779 135 174.168 135 167.863L135 161.664L140.793 159.455C155.31 153.917 178.308 145.475 199.913 135.773C221.516 126.071 241.857 114.371 249.223 105.941L256 98.186Z" class="" fill="#4a90e2" fill-opacity="1"></path><path d="M256 124.34C243.712 134.901 225.935 143.819 207.287 152.193C187.687 160.996 168.301 168.27 153.947 173.699C154.555 176.379 155.451 179.704 156.691 183.412C159.214 190.954 162.938 200.3 167.491 210.662C176.594 231.386 189.008 256.222 201.912 280.032C214.816 303.841 228.237 326.67 239.26 343.357C244.771 351.701 249.714 358.529 253.47 362.979C254.543 364.249 255.177 364.795 256 365.633C256.823 364.795 257.457 364.249 258.53 362.979C262.286 358.529 267.229 351.701 272.74 343.357C283.763 326.67 297.184 303.841 310.088 280.031C322.992 256.221 335.406 231.386 344.51 210.662C349.062 200.3 352.786 190.954 355.309 183.412C356.383 180.221 357.298 176.98 358.053 173.699C343.699 168.27 324.313 160.996 304.713 152.193C286.065 143.819 268.288 134.901 256 124.34Z" class="" fill="#00418d" fill-opacity="1"></path><path d="M199.104 428.338L184.896 439.388C184.896 439.388 194.572 451.856 207.811 464.398C221.049 476.941 237.267 490.863 256 490.863C274.733 490.863 290.95 476.941 304.19 464.398C317.428 451.856 327.104 439.388 327.104 439.388L312.896 428.338C312.896 428.338 303.905 439.872 291.811 451.33C279.716 462.788 263.933 472.863 256 472.863C248.067 472.863 232.284 462.788 220.19 451.33C208.095 439.872 199.104 428.338 199.104 428.338Z" class="selected" fill="#f8e71c" fill-opacity="1"></path></g></g></svg>